<?xml version="1.0" encoding="UTF-8" standalone="no"?>
<!-- Created with Inkscape (http://www.inkscape.org/) -->

<svg
   width="1200"
   height="630"
   viewBox="0 0 317.49999 166.6875"
   version="1.1"
   id="svg1"
   inkscape:version="1.4 (e7c3feb1, 2024-10-09)"
   sodipodi:docname="og_image.svg"
   xml:space="preserve"
   inkscape:export-filename="og_image.png"
   inkscape:export-xdpi="192"
   inkscape:export-ydpi="192"
   xmlns:inkscape="http://www.inkscape.org/namespaces/inkscape"
   xmlns:sodipodi="http://sodipodi.sourceforge.net/DTD/sodipodi-0.dtd"
   xmlns="http://www.w3.org/2000/svg"
   xmlns:svg="http://www.w3.org/2000/svg"><sodipodi:namedview
     id="namedview1"
     pagecolor="#ffffff"
     bordercolor="#000000"
     borderopacity="0.25"
     inkscape:showpageshadow="2"
     inkscape:pageopacity="0.0"
     inkscape:pagecheckerboard="0"
     inkscape:deskcolor="#d1d1d1"
     inkscape:document-units="mm"
     inkscape:zoom="0.4072621"
     inkscape:cx="632.27096"
     inkscape:cy="486.1734"
     inkscape:window-width="1728"
     inkscape:window-height="987"
     inkscape:window-x="0"
     inkscape:window-y="38"
     inkscape:window-maximized="0"
     inkscape:current-layer="g4" /><defs
     id="defs1" /><rect
     style="fill:#d8dee9;fill-opacity:0.786441;stroke:#eceff4;stroke-width:0.113151"
     id="rect3"
     width="317.38699"
     height="166.57436"
     x="0.056575611"
     y="0.056575611"
     sodipodi:insensitive="true" /><g
     id="g2"
     transform="matrix(0.16544259,0,0,0.32231192,0,86.109516)"
     style="fill:#4c566a"
     sodipodi:insensitive="true"><path
       class="fill-nord-5/90 dark:fill-[#373d4c]"
       d="M 1920,250 H 0 V 0 c 0,0 126.707,78.536 349.975,80.05 177.852,1.203 362.805,-63.874 553.803,-63.874 290.517,0 383.458,57.712 603.992,61.408 220.527,3.696 278.059,-61.408 412.23,-17.239"
       id="path1-4"
       style="fill:#eceff4" /><path
       class="fill-nord-6 dark:fill-[#39404f]"
       d="m 1920,144 c 0,0 -467.917,116.857 -1027.243,-17.294 C 369.986,1.322 0,45.578 0,45.578 V 250 h 1920 z"
       id="path2"
       style="fill:#e5e9f0" /><path
       class="translate-y-1 fill-[#fbfbfc] dark:fill-nord-1"
       d="m 0,195.553 c 0,0 208.547,-75.581 701.325,-20.768 376.707,41.908 520.834,-67.962 722.545,-67.962 222.926,0 311.553,83.523 496.129,86.394 V 250 H 0 Z"
       id="path3"
       style="fill:#d8dee9" /></g><g
     id="g4"
     transform="translate(-0.25019767,6.4885719)"><g
       id="g1"
       transform="matrix(1.1607706,0,0,1.1607706,-30.498911,16.319358)"><rect
         style="fill:#5e81ac;stroke:#eceff4;stroke-width:0.132292"
         id="rect1"
         width="70"
         height="70"
         x="127.82402"
         y="8.5129662"
         ry="5" /><path
         style="display:inline;opacity:1;fill:#e5e9f0;stroke:#eceff4;stroke-width:0.0729291"
         d="m 132.61123,33.853047 c -0.40278,-0.813264 15.80132,-5.781516 26.7408,-7.906311 7.73901,-1.503164 27.36737,-5.200761 33.39153,-4.865293 0.59872,0.03334 0.67489,1.971501 0.0736,2.093569 -14.46391,2.936345 -14.82782,2.004137 -28.77782,5.406012 -2.41263,0.588349 -2.44886,0.864151 -3.27025,1.95321 -10.64135,14.109062 -14.56091,32.601668 -17.14461,35.4052 -1.24302,1.34878 -1.36709,-2.02946 -1.25959,-3.296166 0.57022,-6.718904 12.81798,-30.648263 12.81798,-30.648263 0,0 -0.064,-1.083594 -10.49993,1.87016 -7.6963,2.178337 -11.08091,1.988378 -12.07168,-0.01212 z"
         id="path1"
         sodipodi:nodetypes="sssssssscsss" /></g></g></svg>
