<?xml version="1.0" encoding="UTF-8" standalone="no"?>
<svg version="1.2" viewBox="0 0 1920 1080" width="1920" height="1080" id="svg449" sodipodi:docname="bigmap.svg" inkscape:version="1.4 (e7c3feb1, 2024-10-09)" xml:space="preserve"
  xmlns:inkscape="http://www.inkscape.org/namespaces/inkscape"
  xmlns:sodipodi="http://sodipodi.sourceforge.net/DTD/sodipodi-0.dtd"
  xmlns="http://www.w3.org/2000/svg"
  xmlns:svg="http://www.w3.org/2000/svg">
  <sodipodi:namedview id="namedview449" pagecolor="#ffffff" bordercolor="#000000" borderopacity="0.25" inkscape:showpageshadow="2" inkscape:pageopacity="0.0" inkscape:pagecheckerboard="0" inkscape:deskcolor="#d1d1d1" inkscape:document-units="mm" inkscape:zoom="6.4556929" inkscape:cx="842.58965" inkscape:cy="330.09625" inkscape:window-width="2560" inkscape:window-height="1387" inkscape:window-x="0" inkscape:window-y="25" inkscape:window-maximized="1" inkscape:current-layer="svg449" />
  <defs id="defs1" />
  <defs id="defs9" />
  <defs id="defs21" />
  <g stroke-linejoin="bevel" fill="none" inkscape:label="Map 1: world_map — countries" fill-rule="evenodd" id="Map 1: world_map — countries" stroke="#000000" stroke-linecap="square" stroke-width="1" inkscape:groupmode="layer" style="display:inline">
    <g stroke-linejoin="bevel" fill="none" font-family="'.AppleSystemUIFont'" font-style="normal" font-weight="400" stroke="#000000" font-size="54.1667px" stroke-linecap="square" stroke-opacity="1" stroke-width="1" id="g22" />
    <g stroke-linejoin="bevel" fill="none" font-family="'.AppleSystemUIFont'" font-style="normal" font-weight="400" stroke="#000000" font-size="54.1667px" stroke-linecap="square" stroke-opacity="1" stroke-width="1" id="g23" />
    <g stroke-linejoin="bevel" fill="none" font-family="'.AppleSystemUIFont'" font-style="normal" font-weight="400" stroke="#000000" transform="scale(11.811)" font-size="54.1667px" stroke-linecap="square" stroke-opacity="1" stroke-width="1" id="g24" />
    <g stroke-linejoin="bevel" fill="none" font-family="'.AppleSystemUIFont'" font-style="normal" font-weight="400" stroke="#000000" transform="scale(11.811)" font-size="54.1667px" stroke-linecap="square" stroke-opacity="1" stroke-width="1" id="g25" />
    <g fill="#000000" font-family="'.AppleSystemUIFont'" font-style="normal" fill-opacity="0" font-weight="400" stroke="none" font-size="54.1667px" id="g26">
      <rect x="0" width="1920" height="1080" y="0" id="rect25" />
    </g>
    <g stroke-linejoin="bevel" fill="none" font-family="'.AppleSystemUIFont'" font-style="normal" font-weight="400" stroke="#000000" font-size="54.1667px" stroke-linecap="square" stroke-opacity="1" stroke-width="1" id="g27" />
    <g stroke-linejoin="bevel" fill="#e0dcca" font-family="'.AppleSystemUIFont'" font-style="normal" fill-opacity="0.603922" font-weight="400" stroke="#777468" font-size="54.1667px" stroke-linecap="square" stroke-opacity="0.603922" stroke-width="3.07087" id="g368">
      <path fill-rule="evenodd" vector-effect="none" d="M -192,-108 H 2112 V 67.2258 l -0.54,2.2065 -26.15,6.9777 -3.12,3.9457 -20.53,9.6358 -11.13,10.9645 -11.46,1.883 -19.69,12.793 -4.61,-0.99 -22.05,13.083 -14.04,6.182 -4.52,-0.99 -21.72,8.099 -14.49,14.308 -10.03,3.807 -20.89,15.409 -14.83,-2.533 -18.64,8.874 -2.16,4.901 -7.77,-6.161 h -13.32 l -3.59,4.528 h -8.14 l -17.73,9.324 -20.69,1.35 -10.41,3.322 -13.55,9.449 -22.68,-1.862 -4.77,-3.945 7.15,-3.475 6.51,0.83 0.37,-1.993 -15.16,-13.125 -15.18,1.938 -2.18,8.861 -3.86,2.616 -8.35,-1.412 -4.22,-10.902 -5.75,-2.029 1.04,-12.882 -4.03,0.166 -9.88,5.753 2.33,2.325 -13.01,0.083 -6.97,3.199 -11.47,-5.275 -1.33,-8.999 -16.72,-3.06 -1.74,3.489 -8.23,3.586 2.44,6.977 -8.27,2.423 -4.05,-7.656 2.93,-29.53 -2.35,-3.676 5.01,-1.454 -0.37,-4.465 3.61,-2.312 -1.79,-6.97 4.67,0.685 4.28,-3.447 -12.59,-7.989 6.48,-4.928 v -5.234 l -9.56,-2.492 -1.29,5.794 -4.76,2.042 -4.66,6.244 -22.23,8.307 -11.28,10.965 -16.96,7.988 -7.4,-2.734 5.82,-5.919 -10.47,5.919 -1.58,-2.527 10.53,-16.516 7.97,-5.504 6.51,-1.495 1.66,-3.675 6.52,-4.445 1.2,-4.818 -3.57,-1.7647 -6.63,8.8537 -4.03,0.429 1.66,-3.655 -3.62,-2.347 -10.47,-2.173 -8.38,2.257 -5.16,-5.3375 -8.75,7.6625 -2.34,11.298 -4.74,2.637 7.02,4.07 -5.64,1.994 -6.14,-4.797 -8.11,5.697 3.36,2.035 4.75,-3.08 -1.92,4.506 -20.48,18.746 0.33,7.15 -8.04,-2.222 -3.09,1.592 -0.58,9.816 -9.84,1.385 -7.55,-1.849 1.11,12.191 9.97,-1.883 2.16,1.903 -15.78,7.165 -4.58,9.662 -8.83,-3.224 -4.59,2.713 -6.24,12.025 4.4,4.346 -1.39,2.195 -5.09,1.294 -3.92,7.922 5.6,4.282 -3.63,0.836 1.15,4.972 -8.94,-3.558 2.33,-5.032 -9.15,-2.05 -1.11,-8.495 -2.5,-0.197 -3.17,4.759 -15.68,-0.054 -7.21,2.194 -3.63,3.552 -7.06,1.246 -12.62,-5.882 12.59,-0.756 7.26,3.447 2.99,-5.915 -27.69,-0.11 7.67,-3.452 -1.12,-4.298 -13.63,3.101 -4.18,-3.221 -10.91,6.116 0.71,3.554 12.27,4.702 -0.58,6.189 7.6,-3.005 16.79,11.768 -0.46,1.648 -4.62,-0.305 -0.74,8.065 -8.86,1.786 -7.39,18.402 -7.35,9.965 -6.33,-4.331 -2.88,-13.662 -9.94,-5.296 -9.63,-16.752 9.14,-6.537 -2.15,-9.002 -11.56,-9.525 -17.04,0.044 -4.1,-3.253 4.68,-6.585 30.5,-13.93 25.25,-1.23 5.89,-7.029 37.93,2.905 5.34,-8.088 8.53,-0.052 4.94,-2.356 -4.2,-20.651 17.97,-15.139 -2.53,-13.763 11.67,-10.91 1.74,-13.3316 5.61,-6.1275 -1.12,-12.0749 -3.65,-3.057 -15.68,-10.8201 5.33,-9.5034 -3.69,-32.7433 8,-21.6705349 -0.72,-16.7386651 8.74,-8.0529 L 1427.78,-108 H -192" id="path27" />
      <path fill-rule="evenodd" vector-effect="none" d="" id="path28" />
      <path fill-rule="evenodd" vector-effect="none" d="" id="path29" />
      <path fill-rule="evenodd" vector-effect="none" d="" id="path30" />
      <path fill-rule="evenodd" vector-effect="none" d="" id="path31" />
      <path fill-rule="evenodd" vector-effect="none" d="" id="path32" />
      <path fill-rule="evenodd" vector-effect="none" d="" id="path33" />
      <path fill-rule="evenodd" vector-effect="none" d="" id="path34" />
      <path fill-rule="evenodd" vector-effect="none" d="" id="path35" />
      <path fill-rule="evenodd" vector-effect="none" d="" id="path36" />
      <path fill-rule="evenodd" vector-effect="none" d="" id="path37" />
      <path fill-rule="evenodd" vector-effect="none" d="" id="path38" />
      <path fill-rule="evenodd" vector-effect="none" d="" id="path39" />
      <path fill-rule="evenodd" vector-effect="none" d="" id="path40" />
      <path fill-rule="evenodd" vector-effect="none" d="" id="path41" />
      <path fill-rule="evenodd" vector-effect="none" d="" id="path42" />
      <path fill-rule="evenodd" vector-effect="none" d="" id="path43" />
      <path fill-rule="evenodd" vector-effect="none" d="" id="path44" />
      <path fill-rule="evenodd" vector-effect="none" d="" id="path45" />
      <path fill-rule="evenodd" vector-effect="none" d="" id="path46" />
      <path fill-rule="evenodd" vector-effect="none" d="" id="path47" />
      <path fill-rule="evenodd" vector-effect="none" d="" id="path48" />
      <path fill-rule="evenodd" vector-effect="none" d="" id="path49" />
      <path fill-rule="evenodd" vector-effect="none" d="" id="path50" />
      <path fill-rule="evenodd" vector-effect="none" d="" id="path51" />
      <path fill-rule="evenodd" vector-effect="none" d="" id="path52" />
      <path fill-rule="evenodd" vector-effect="none" d="" id="path53" />
      <path fill-rule="evenodd" vector-effect="none" d="" id="path54" />
      <path fill-rule="evenodd" vector-effect="none" d="" id="path55" />
      <path fill-rule="evenodd" vector-effect="none" d="" id="path56" />
      <path fill-rule="evenodd" vector-effect="none" d="" id="path57" />
      <path fill-rule="evenodd" vector-effect="none" d="" id="path58" />
      <path fill-rule="evenodd" vector-effect="none" d="" id="path59" />
      <path fill-rule="evenodd" vector-effect="none" d="" id="path60" />
      <path fill-rule="evenodd" vector-effect="none" d="" id="path61" />
      <path fill-rule="evenodd" vector-effect="none" d="" id="path62" />
      <path fill-rule="evenodd" vector-effect="none" d="" id="path63" />
      <path fill-rule="evenodd" vector-effect="none" d="" id="path64" />
      <path fill-rule="evenodd" vector-effect="none" d="" id="path65" />
      <path fill-rule="evenodd" vector-effect="none" d="" id="path66" />
      <path fill-rule="evenodd" vector-effect="none" d="" id="path67" />
      <path fill-rule="evenodd" vector-effect="none" d="" id="path68" />
      <path fill-rule="evenodd" vector-effect="none" d="" id="path69" />
      <path fill-rule="evenodd" vector-effect="none" d="" id="path70" />
      <path fill-rule="evenodd" vector-effect="none" d="" id="path71" />
      <path fill-rule="evenodd" vector-effect="none" d="" id="path72" />
      <path fill-rule="evenodd" vector-effect="none" d="" id="path73" />
      <path fill-rule="evenodd" vector-effect="none" d="" id="path74" />
      <path fill-rule="evenodd" vector-effect="none" d="" id="path75" />
      <path fill-rule="evenodd" vector-effect="none" d="" id="path76" />
      <path fill-rule="evenodd" vector-effect="none" d="" id="path77" />
      <path fill-rule="evenodd" vector-effect="none" d="" id="path78" />
      <path fill-rule="evenodd" vector-effect="none" d="" id="path79" />
      <path fill-rule="evenodd" vector-effect="none" d="" id="path80" />
      <path fill-rule="evenodd" vector-effect="none" d="" id="path81" />
      <path fill-rule="evenodd" vector-effect="none" d="" id="path82" />
      <path fill-rule="evenodd" vector-effect="none" d="" id="path83" />
      <path fill-rule="evenodd" vector-effect="none" d="" id="path84" />
      <path fill-rule="evenodd" vector-effect="none" d="" id="path85" />
      <path fill-rule="evenodd" vector-effect="none" d="" id="path86" />
      <path fill-rule="evenodd" vector-effect="none" d="" id="path87" />
      <path fill-rule="evenodd" vector-effect="none" d="" id="path88" />
      <path fill-rule="evenodd" vector-effect="none" d="" id="path89" />
      <path fill-rule="evenodd" vector-effect="none" d="" id="path90" />
      <path fill-rule="evenodd" vector-effect="none" d="" id="path91" />
      <path fill-rule="evenodd" vector-effect="none" d="" id="path92" />
      <path fill-rule="evenodd" vector-effect="none" d="" id="path93" />
      <path fill-rule="evenodd" vector-effect="none" d="" id="path94" />
      <path fill-rule="evenodd" vector-effect="none" d="" id="path95" />
      <path fill-rule="evenodd" vector-effect="none" d="" id="path96" />
      <path fill-rule="evenodd" vector-effect="none" d="" id="path97" />
      <path fill-rule="evenodd" vector-effect="none" d="" id="path98" />
      <path fill-rule="evenodd" vector-effect="none" d="" id="path99" />
      <path fill-rule="evenodd" vector-effect="none" d="" id="path100" />
      <path fill-rule="evenodd" vector-effect="none" d="" id="path101" />
      <path fill-rule="evenodd" vector-effect="none" d="" id="path102" />
      <path fill-rule="evenodd" vector-effect="none" d="" id="path103" />
      <path fill-rule="evenodd" vector-effect="none" d="" id="path104" />
      <path fill-rule="evenodd" vector-effect="none" d="" id="path105" />
      <path fill-rule="evenodd" vector-effect="none" d="" id="path106" />
      <path fill-rule="evenodd" vector-effect="none" d="" id="path107" />
      <path fill-rule="evenodd" vector-effect="none" d="" id="path108" />
      <path fill-rule="evenodd" vector-effect="none" d="" id="path109" />
      <path fill-rule="evenodd" vector-effect="none" d="" id="path110" />
      <path fill-rule="evenodd" vector-effect="none" d="" id="path111" />
      <path fill-rule="evenodd" vector-effect="none" d="" id="path112" />
      <path fill-rule="evenodd" vector-effect="none" d="" id="path113" />
      <path fill-rule="evenodd" vector-effect="none" d="" id="path114" />
      <path fill-rule="evenodd" vector-effect="none" d="" id="path115" />
      <path fill-rule="evenodd" vector-effect="none" d="" id="path116" />
      <path fill-rule="evenodd" vector-effect="none" d="" id="path117" />
      <path fill-rule="evenodd" vector-effect="none" d="" id="path118" />
      <path fill-rule="evenodd" vector-effect="none" d="" id="path119" />
      <path fill-rule="evenodd" vector-effect="none" d="" id="path120" />
      <path fill-rule="evenodd" vector-effect="none" d="" id="path121" />
      <path fill-rule="evenodd" vector-effect="none" d="" id="path122" />
      <path fill-rule="evenodd" vector-effect="none" d="" id="path123" />
      <path fill-rule="evenodd" vector-effect="none" d="" id="path124" />
      <path fill-rule="evenodd" vector-effect="none" d="" id="path125" />
      <path fill-rule="evenodd" vector-effect="none" d="" id="path126" />
      <path fill-rule="evenodd" vector-effect="none" d="" id="path127" />
      <path fill-rule="evenodd" vector-effect="none" d="" id="path128" />
      <path fill-rule="evenodd" vector-effect="none" d="" id="path129" />
      <path fill-rule="evenodd" vector-effect="none" d="" id="path130" />
      <path fill-rule="evenodd" vector-effect="none" d="" id="path131" />
      <path fill-rule="evenodd" vector-effect="none" d="" id="path132" />
      <path fill-rule="evenodd" vector-effect="none" d="" id="path133" />
      <path fill-rule="evenodd" vector-effect="none" d="" id="path134" />
      <path fill-rule="evenodd" vector-effect="none" d="" id="path135" />
      <path fill-rule="evenodd" vector-effect="none" d="" id="path136" />
      <path fill-rule="evenodd" vector-effect="none" d="" id="path137" />
      <path fill-rule="evenodd" vector-effect="none" d="" id="path138" />
      <path fill-rule="evenodd" vector-effect="none" d="" id="path139" />
      <path fill-rule="evenodd" vector-effect="none" d="" id="path140" />
      <path fill-rule="evenodd" vector-effect="none" d="" id="path141" />
      <path fill-rule="evenodd" vector-effect="none" d="" id="path142" />
      <path fill-rule="evenodd" vector-effect="none" d="" id="path143" />
      <path fill-rule="evenodd" vector-effect="none" d="" id="path144" />
      <path fill-rule="evenodd" vector-effect="none" d="" id="path145" />
      <path fill-rule="evenodd" vector-effect="none" d="" id="path146" />
      <path fill-rule="evenodd" vector-effect="none" d="" id="path147" />
      <path fill-rule="evenodd" vector-effect="none" d="" id="path148" />
      <path fill-rule="evenodd" vector-effect="none" d="" id="path149" />
      <path fill-rule="evenodd" vector-effect="none" d="" id="path150" />
      <path fill-rule="evenodd" vector-effect="none" d="" id="path151" />
      <path fill-rule="evenodd" vector-effect="none" d="" id="path152" />
      <path fill-rule="evenodd" vector-effect="none" d="" id="path153" />
      <path fill-rule="evenodd" vector-effect="none" d="" id="path154" />
      <path fill-rule="evenodd" vector-effect="none" d="" id="path155" />
      <path fill-rule="evenodd" vector-effect="none" d="" id="path156" />
      <path fill-rule="evenodd" vector-effect="none" d="" id="path157" />
      <path fill-rule="evenodd" vector-effect="none" d="" id="path158" />
      <path fill-rule="evenodd" vector-effect="none" d="" id="path159" />
      <path fill-rule="evenodd" vector-effect="none" d="" id="path160" />
      <path fill-rule="evenodd" vector-effect="none" d="" id="path161" />
      <path fill-rule="evenodd" vector-effect="none" d="" id="path162" />
      <path fill-rule="evenodd" vector-effect="none" d="" id="path163" />
      <path fill-rule="evenodd" vector-effect="none" d="" id="path164" />
      <path fill-rule="evenodd" vector-effect="none" d="" id="path165" />
      <path fill-rule="evenodd" vector-effect="none" d="" id="path166" />
      <path fill-rule="evenodd" vector-effect="none" d="" id="path167" />
      <path fill-rule="evenodd" vector-effect="none" d="" id="path168" />
      <path fill-rule="evenodd" vector-effect="none" d="" id="path169" />
      <path fill-rule="evenodd" vector-effect="none" d="" id="path170" />
      <path fill-rule="evenodd" vector-effect="none" d="" id="path171" />
      <path fill-rule="evenodd" vector-effect="none" d="" id="path172" />
      <path fill-rule="evenodd" vector-effect="none" d="" id="path173" />
      <path fill-rule="evenodd" vector-effect="none" d="" id="path174" />
      <path fill-rule="evenodd" vector-effect="none" d="" id="path175" />
      <path fill-rule="evenodd" vector-effect="none" d="" id="path176" />
      <path fill-rule="evenodd" vector-effect="none" d="" id="path177" />
      <path fill-rule="evenodd" vector-effect="none" d="" id="path178" />
      <path fill-rule="evenodd" vector-effect="none" d="" id="path179" />
      <path fill-rule="evenodd" vector-effect="none" d="" id="path180" />
      <path fill-rule="evenodd" vector-effect="none" d="" id="path181" />
      <path fill-rule="evenodd" vector-effect="none" d="" id="path182" />
      <path fill-rule="evenodd" vector-effect="none" d="" id="path183" />
      <path fill-rule="evenodd" vector-effect="none" d="" id="path184" />
      <path fill-rule="evenodd" vector-effect="none" d="" id="path185" />
      <path fill-rule="evenodd" vector-effect="none" d="" id="path186" />
      <path fill-rule="evenodd" vector-effect="none" d="" id="path187" />
      <path fill-rule="evenodd" vector-effect="none" d="m 1559.39,161.263 -7.83,-0.062 -13.65,-4.922 5.81,-1.059 -3.71,-3.246 3.71,-0.346 -2.32,-4.631 13.92,1.253 -5.59,-4.749 4.85,0.651 11.07,7.116 -0.86,5.994 -5.4,4.001" id="path188" />
      <path fill-rule="evenodd" vector-effect="none" d="" id="path189" />
      <path fill-rule="evenodd" vector-effect="none" d="" id="path190" />
      <path fill-rule="evenodd" vector-effect="none" d="" id="path191" />
      <path fill-rule="evenodd" vector-effect="none" d="" id="path192" />
      <path fill-rule="evenodd" vector-effect="none" d="" id="path193" />
      <path fill-rule="evenodd" vector-effect="none" d="" id="path194" />
      <path fill-rule="evenodd" vector-effect="none" d="" id="path195" />
      <path fill-rule="evenodd" vector-effect="none" d="" id="path196" />
      <path fill-rule="evenodd" vector-effect="none" d="" id="path197" />
      <path fill-rule="evenodd" vector-effect="none" d="" id="path198" />
      <path fill-rule="evenodd" vector-effect="none" d="" id="path199" />
      <path fill-rule="evenodd" vector-effect="none" d="" id="path200" />
      <path fill-rule="evenodd" vector-effect="none" d="" id="path201" />
      <path fill-rule="evenodd" vector-effect="none" d="" id="path202" />
      <path fill-rule="evenodd" vector-effect="none" d="" id="path203" />
      <path fill-rule="evenodd" vector-effect="none" d="" id="path204" />
      <path fill-rule="evenodd" vector-effect="none" d="" id="path205" />
      <path fill-rule="evenodd" vector-effect="none" d="" id="path206" />
      <path fill-rule="evenodd" vector-effect="none" d="" id="path207" />
      <path fill-rule="evenodd" vector-effect="none" d="" id="path208" />
      <path fill-rule="evenodd" vector-effect="none" d="" id="path209" />
      <path fill-rule="evenodd" vector-effect="none" d="" id="path210" />
      <path fill-rule="evenodd" vector-effect="none" d="" id="path211" />
      <path fill-rule="evenodd" vector-effect="none" d="" id="path212" />
      <path fill-rule="evenodd" vector-effect="none" d="" id="path213" />
      <path fill-rule="evenodd" vector-effect="none" d="m 1647.56,183.173 4.41,-10.875 3.81,11.532 4.37,4.742 -12.59,-5.399" id="path214" />
      <path fill-rule="evenodd" vector-effect="none" d="" id="path215" />
      <path fill-rule="evenodd" vector-effect="none" d="" id="path216" />
      <path fill-rule="evenodd" vector-effect="none" d="" id="path217" />
      <path fill-rule="evenodd" vector-effect="none" d="" id="path218" />
      <path fill-rule="evenodd" vector-effect="none" d="" id="path219" />
      <path fill-rule="evenodd" vector-effect="none" d="" id="path220" />
      <path fill-rule="evenodd" vector-effect="none" d="" id="path221" />
      <path fill-rule="evenodd" vector-effect="none" d="" id="path222" />
      <path fill-rule="evenodd" vector-effect="none" d="" id="path223" />
      <path fill-rule="evenodd" vector-effect="none" d="" id="path224" />
      <path fill-rule="evenodd" vector-effect="none" d="" id="path225" />
      <path fill-rule="evenodd" vector-effect="none" d="" id="path226" />
      <path fill-rule="evenodd" vector-effect="none" d="" id="path227" />
      <path fill-rule="evenodd" vector-effect="none" d="" id="path228" />
      <path fill-rule="evenodd" vector-effect="none" d="" id="path229" />
      <path fill-rule="evenodd" vector-effect="none" d="" id="path230" />
      <path fill-rule="evenodd" vector-effect="none" d="" id="path231" />
      <path fill-rule="evenodd" vector-effect="none" d="" id="path232" />
      <path fill-rule="evenodd" vector-effect="none" d="" id="path233" />
      <path fill-rule="evenodd" vector-effect="none" d="" id="path234" />
      <path fill-rule="evenodd" vector-effect="none" d="" id="path235" />
      <path fill-rule="evenodd" vector-effect="none" d="" id="path236" />
      <path fill-rule="evenodd" vector-effect="none" d="" id="path237" />
      <path fill-rule="evenodd" vector-effect="none" d="" id="path238" />
      <path fill-rule="evenodd" vector-effect="none" d="" id="path239" />
      <path fill-rule="evenodd" vector-effect="none" d="" id="path240" />
      <path fill-rule="evenodd" vector-effect="none" d="" id="path241" />
      <path fill-rule="evenodd" vector-effect="none" d="" id="path242" />
      <path fill-rule="evenodd" vector-effect="none" d="M -192,1188 V -108 h 1619.78 l 26.34,83.2431 -8.74,8.0529 0.72,16.7386651 -8,21.6705349 3.69,32.7433 -5.33,9.5034 15.68,10.8201 3.65,3.057 1.12,12.0749 -5.61,6.1275 -1.74,13.3316 -11.67,10.91 2.53,13.763 -17.97,15.139 4.2,20.651 -4.94,2.356 -8.53,0.052 -5.34,8.088 -37.93,-2.905 -5.89,7.029 -25.25,1.23 -30.5,13.93 -4.68,6.585 4.1,3.253 17.04,-0.044 11.56,9.525 2.15,9.002 -9.14,6.537 -5,-13.662 -2.93,0.132 -4.94,4.229 2.7,2.619 -3.21,3.436 -4.15,-8.473 -17.52,-8.664 -10.56,-9.921 -3.34,-5.912 2.28,-21.016 -2.97,-6.013 -23.86,-3.279 5.4,-6.457 -1.53,-3.807 -21.4,3.394 -14.72,-7.917 -5.01,2.11 4.65,3.385 -9.41,2.422 -15.39,36.721 -0.63,7.213 5.1,4.558 -1.85,5.047 -4.36,0.725 -1.61,2.369 3.65,3.873 -4.52,3.587 -1.3,18.593 -4.34,5.697 -18.99,-0.949 -0.68,6.224 -4.17,1.235 -1.53,4.633 -3.24,1.244 -17.19,-12.172 -8.14,2.211 -7.85,-2.954 2.04,4.229 -4.36,-1.046 -3.86,6.325 -11.52,2.589 0.03,8.589 -7.2,0.959 5.8,3.49 -8.04,9.292 5.17,3.939 -15.54,12.009 -9.37,-0.748 -0.21,3.007 -6.28,5.82 -10.67,2.272 -4.05,9.042 -9.68,0.844 -27.59,-2.923 -1.99,2.963 h -17.25 l -7.4,4.998 -10.55,0.8 -40.897,-6.255 -38.682,6.655 -2.409,4.879 4.66,17.196 7.349,3.784 11.587,22.102 15.613,8.795 8.862,13.051 -19.956,30.444 -6.734,4.783 -7.174,-0.475 2.426,-2.435 -2.426,-1.046 -6.769,1.899 -2.304,-5.495 -6.031,1.266 -2.338,-9.793 -4.624,3.49 -5.108,-3.49 -10.673,1.696 -5.547,5.029 -31.675,-2.664 -4.141,2.91 -13.53,-4.826 -2.707,-5.627 -11.702,-1.274 -7.956,2.672 -8.228,-2.672 -12.563,0.703 -6.137,-1.75 3.526,-2.312 -1.416,-2.127 -12.65,-2.532 -4.66,4.932 -4.044,-2.312 -3.622,1.45 -5.099,-2.62 5.416,-5.415 7.349,-2.708 -20.536,-9.89 -1.706,-5.859 4.704,-0.519 -5.776,-8.822 -7.323,-3.297 -9.099,-2.409 -2.778,-5.929 -7.262,2.742 -3.798,6.405 -9.512,2.967 -3.446,5.771 -10.436,-6.975 -8.132,0.158 8.247,5.908 -9.978,5.806 -8.748,0.202 -8.651,8.809 1.741,8.906 -12.923,21.679 3.543,14.022 -5.864,1.284 2.321,-3.692 -4.897,-0.071 -5.38,3.086 -22.348,23.912 -5.916,9.398 -25.688,13.108 2.452,3.156 -6.268,5.934 0.466,2.198 -4.835,2.057 -5.125,8.915 -9.099,2.778 -1.952,2.505 5.011,-0.044 -0.369,2.48 -12.194,3.727 -8.668,-3.42 -10.761,4.721 -10.382,-2.708 -2.558,2.981 -7.113,1.524 -10.083,8.269 6.435,7.095 -12.369,1.292 -6.497,-4.017 -4.299,10.03 -11.517,1.222 -4.387,7.719 -4.536,0.378 -1.9,3.144 -0.324,3.555 -20.405,-2.857 -6.33,5.706 -39.297,13.723 -1.67,4.439 4.422,8.027 -18.031,0.941 -6.769,-4.774 -16.106,15.235 -10.145,4.035 -4.888,10.216 -11.886,2.725 -12.202,7.121 -3.781,5.363 -30.399,20.859 -1.467,14.821 -11.422,13.166 -4.735,1.163 -25.211,15.956 -5.109,-3.185 -5.565,3.738 -11.865,3.344 -7.407,-5.157 -9.29,3.004 -13.595,-2.499 -5.884,3.274 -22.11,-10.245 2.326,-6.964 -4.389,2.638 -6.728,20.358 -4.79,2.645 -8.515,-4.936 -14.536,12.107 -3.282,-3.295 1.468,-13.36 -3.212,1.052 -1.952,4.887 -12.363,2.299 -11.7959,-6.452 3.5165,10.197 -9.4282,-0.146 -0.6091,3.448 10.6742,4.61 -7.8222,4.735 -16.1151,2.533 -3.475,-4.299 -8.4868,2.617 -8.3344,-0.976 -5.3579,2.423 3.1843,2.824 -5.4825,6.466 -3.2673,-1.371 -12.4739,2.367 -3.9042,-2.056 -11.7125,9.768 -15.57519,7.116 -6.77001,-2.347 -10.3004,11.131 -4.3887,-3.364 -1.1353,5.233 -14.5645,6.687 -12.5016,0.962 -18.0811,10.218 -3.8487,5.607 -2.7136,-0.962 -1.9105,6.472 -21.3064,14.44 -1.786,7.081 9.8985,2.209 -5.9945,0.706 -13.54,7.282 -0.942,6.715 -9.234,-0.547 -7.67,4.534 -9.276,-1.052 5.912,5.697 -16.378,-4.645 11.629,9.4 -4.07,5.171 -10.176,-3.779 -6.645,-8.356 -8.127,-1.398 2.395,4.873 -9.968,-1.266 -7.559,2.325 3.447,0.797 -0.581,4.624 -10.922,3.913 v 0.108 l 17.899,5.137 0.457,7.94 -18.356,0.614 V 825.24 l 14.577,-5.14 1.176,-8.231 -6.645,-6.77 -8.39,-2.72 2.603,-1.454 -1.066,-3.489 5.344,-2.534 -7.337,-4.746 15.353,-1.899 9.511,-6.216 -0.817,-3.184 8.252,-6.978 9.816,1.163 17.942,-5.905 -1.994,-3.032 -14.01,5.074 -24.007,-1.412 1.703,4.112 -22.011,0.784 v -85.298 l 4.711,-0.584 3.382,-4.25 8.325,-4.394 15.229,0.284 5.995,-7.518 10.909,-4.485 0.166,-4.237 -8.14,-1.059 9.109,-3.227 8.337,-6.088 0.621,-4.1 10.641,-3.83 -0.715,-10.735 8.016,-1.592 9.027,-5.248 2.462,-14.106 17.8481,-11.99 -1.2598,-7.933 7.9052,-0.574 0.2354,-3.967 6.2301,-3.219 2.3397,-5.018 -13.097,-12.959 -12.6622,-4.312 -2.1858,-3.429 5.1707,-5.017 -1.4537,-8.182 -6.3967,3.655 -12.377,-11.221 -33.683,-14.661 -4.278,-19.722 8.306,-7.04 -1.163,-1.059 -7.13,3.703 -8.218,6.644 0.399,4.604 -6.891,10.009 -25.714,1.185 v 580.397 l 14.923,-1.49 -7.116,-3.94 -7.807,1.47 v -0.17 l 2.407,-2.91 5.524,-1.6 16.572,3.32 34.944,-0.43 3.309,0.78 -1.274,5.8 h 6.507 l -1.744,-7.84 8.14,-9.59 7.85,-2.8 -0.789,-3.1 4.749,2.31 4.554,-2.31 5.1091,5.08 -3.738,8.4 9.0682,11.11 6.9777,-6.77 3.5996,-0.29 8.6944,7.06 30.8872,-1.26 15.7413,4.09 7.1161,-2.9 12.9032,1.49 -1.57828,5.98 -3.89032,-1.69 -14.5091,6.77 4.0703,8.44 -7.6699,-4.18 1.7721,7.66 11.7125,13.94 -9.2897,1.27 v 6.96 l -10.9373,-1.83 -4.6517,2.59 -2.0352,5.05 -2.852,-7.49 -2.9904,10.98 3.5165,4.06 -9.3035,7.56 3.738,3.03 2.049,-4.1 h 17.638 l -1.246,17.32 -0.0702,0.08 h -5.2487 l -0.4958,-2.29 -5.2432,2.29 h -44.4291 l -7.4643,-3.46 2.8935,-10.21 -2.3121,-1.41 -2.7412,1.5 -1.2045,10.12 -8.2652,-0.87 -1.692,4.33 h -7.814 l 1.822,-9.26 -20.905,-2.33 -1.938,1.32 5.939,7.98 -4.243,2.29 H -192" id="path243" />
      <path fill-rule="evenodd" vector-effect="none" d="" id="path244" />
      <path fill-rule="evenodd" vector-effect="none" d="" id="path245" />
      <path fill-rule="evenodd" vector-effect="none" d="" id="path246" />
      <path fill-rule="evenodd" vector-effect="none" d="" id="path247" />
      <path fill-rule="evenodd" vector-effect="none" d="" id="path248" />
      <path fill-rule="evenodd" vector-effect="none" d="" id="path249" />
      <path fill-rule="evenodd" vector-effect="none" d="" id="path250" />
      <path fill-rule="evenodd" vector-effect="none" d="" id="path251" />
      <path fill-rule="evenodd" vector-effect="none" d="" id="path252" />
      <path fill-rule="evenodd" vector-effect="none" d="" id="path253" />
      <path fill-rule="evenodd" vector-effect="none" d="" id="path254" />
      <path fill-rule="evenodd" vector-effect="none" d="" id="path255" />
      <path fill-rule="evenodd" vector-effect="none" d="" id="path256" />
      <path fill-rule="evenodd" vector-effect="none" d="" id="path257" />
      <path fill-rule="evenodd" vector-effect="none" d="" id="path258" />
      <path fill-rule="evenodd" vector-effect="none" d="" id="path259" />
      <path fill-rule="evenodd" vector-effect="none" d="" id="path260" />
      <path fill-rule="evenodd" vector-effect="none" d="" id="path261" />
      <path fill-rule="evenodd" vector-effect="none" d="" id="path262" />
      <path fill-rule="evenodd" vector-effect="none" d="" id="path263" />
      <path fill-rule="evenodd" vector-effect="none" d="" id="path264" />
      <path fill-rule="evenodd" vector-effect="none" d="" id="path265" />
      <path fill-rule="evenodd" vector-effect="none" d="" id="path266" />
      <path fill-rule="evenodd" vector-effect="none" d="" id="path267" />
      <path fill-rule="evenodd" vector-effect="none" d="" id="path268" />
      <path fill-rule="evenodd" vector-effect="none" d="" id="path269" />
      <path fill-rule="evenodd" vector-effect="none" d="" id="path270" />
      <path fill-rule="evenodd" vector-effect="none" d="" id="path271" />
      <path fill-rule="evenodd" vector-effect="none" d="" id="path272" />
      <path fill-rule="evenodd" vector-effect="none" d="" id="path273" />
      <path fill-rule="evenodd" vector-effect="none" d="" id="path274" />
      <path fill-rule="evenodd" vector-effect="none" d="m -5.54289,790.472 -16.71041,0.713 -13.8031,-6.624 30.51351,5.911" id="path275" />
      <path fill-rule="evenodd" vector-effect="none" d="" id="path276" />
      <path fill-rule="evenodd" vector-effect="none" d="" id="path277" />
      <path fill-rule="evenodd" vector-effect="none" d="" id="path278" />
      <path fill-rule="evenodd" vector-effect="none" d="m -67.3174,806.843 5.7039,-5.046 8.1268,-3.094 -2.3259,4.548 2.3259,4.755 -11.671,2.181 -2.1597,-3.344" id="path279" />
      <path fill-rule="evenodd" vector-effect="none" d="m -13.7804,795.221 14.05223,-1.295 3.55807,3.344 -8.30677,4.922 1.16295,-4.756 -10.46648,-2.215" id="path280" />
      <path fill-rule="evenodd" vector-effect="none" d="" id="path281" />
      <path fill-rule="evenodd" vector-effect="none" d="" id="path282" />
      <path fill-rule="evenodd" vector-effect="none" d="" id="path283" />
      <path fill-rule="evenodd" vector-effect="none" d="" id="path284" />
      <path fill-rule="evenodd" vector-effect="none" d="" id="path285" />
      <path fill-rule="evenodd" vector-effect="none" d="" id="path286" />
      <path fill-rule="evenodd" vector-effect="none" d="" id="path287" />
      <path fill-rule="evenodd" vector-effect="none" d="" id="path288" />
      <path fill-rule="evenodd" vector-effect="none" d="m 42.0825,747.388 0.623,-4.361 3.6965,-1.433 8.556,3.364 -1.7168,3.717 -8.5421,1.454 -2.6166,-2.741" id="path289" />
      <path fill-rule="evenodd" vector-effect="none" d="" id="path290" />
      <path fill-rule="evenodd" vector-effect="none" d="" id="path291" />
      <path fill-rule="evenodd" vector-effect="none" d="m 78.8814,819.435 2.5336,6.784 -5.9394,3.883 -2.6304,-2.388 3.3227,-3.932 -3.5996,-2.464 6.3131,-1.883" id="path292" />
      <path fill-rule="evenodd" vector-effect="none" d="" id="path293" />
      <path fill-rule="evenodd" vector-effect="none" d="" id="path294" />
      <path fill-rule="evenodd" vector-effect="none" d="" id="path295" />
      <path fill-rule="evenodd" vector-effect="none" d="" id="path296" />
      <path fill-rule="evenodd" vector-effect="none" d="" id="path297" />
      <path fill-rule="evenodd" vector-effect="none" d="" id="path298" />
      <path fill-rule="evenodd" vector-effect="none" d="" id="path299" />
      <path fill-rule="evenodd" vector-effect="none" d="" id="path300" />
      <path fill-rule="evenodd" vector-effect="none" d="" id="path301" />
      <path fill-rule="evenodd" vector-effect="none" d="" id="path302" />
      <path fill-rule="evenodd" vector-effect="none" d="" id="path303" />
      <path fill-rule="evenodd" vector-effect="none" d="" id="path304" />
      <path fill-rule="evenodd" vector-effect="none" d="" id="path305" />
      <path fill-rule="evenodd" vector-effect="none" d="" id="path306" />
      <path fill-rule="evenodd" vector-effect="none" d="m 606.376,1188 0.732,-6.07 3.959,-0.97 1.227,7.04 h 16.463 l -10.047,-5.06 -0.54,-1.58 3.267,0.87 1.121,-2.64 -6.936,-2.02 2.949,-2.25 6.535,1.73 -0.097,-3.07 9.276,0.76 1.273,2.25 -3.488,4.8 1.079,2.75 5.081,-2 1.689,3.69 -0.323,1.77 h 5.968 l 1.264,-3.82 4.855,3.82 h 1.735 l -10.965,-12.17 0.581,-1.84 7.352,5.27 5.455,-0.11 -10.184,-6.62 -1.958,-6.56 21.325,10.01 0.714,12.02 h 0.934 l 2.325,-6.9 5.46,-4.88 12.967,2.13 6.545,4.5 -1.136,5.15 h 35.039 l 0.819,-0.49 -1.052,-6.55 7.697,-2.58 0.443,-1.97 -10.175,2.29 -2.229,8.18 -9.595,0.41 -15.018,-12.41 10.187,-0.9 -2.313,-2.31 6.854,1.25 -4.735,-9.43 1.246,-4.49 -3.406,0.88 -3.627,9.1 -15.977,-1.96 1.571,-11.71 5.057,-3.62 11.799,-1.94 1.218,-4.28 -6.95,2.86 -4.679,-4.54 -16.918,10.32 -2.866,-2.49 3.544,-4.35 -6.534,0.52 0.373,-4.05 8.224,-4.63 -6.604,-0.82 -3.696,-6.23 2.326,-1.26 16.239,1.26 2.451,5.81 6.327,-9.23 8.763,1.11 -30.775,-10.99 5.146,-7.58 -9.407,-2.06 -4.152,4.21 -4.296,-2.61 4.004,-5.79 -7.254,-4.4 -0.165,-5.55 8.361,-5.47 -6.416,1.29 -0.452,-8.93 -7.363,-9.87 -4.353,-27.37 21.597,1.75 -0.069,14.55 15.949,5.87 -13,-8.23 3.696,-9.65 -2.658,-8.61 2.562,-6.13 -5.53,0.31 -0.284,-18.68 16.352,-7.04 14.532,-17.524 12.334,-8.945 3.454,-6.732 4.412,-6.612 21.163,-12.388 11.402,-3.635 37.363,-1.921 16.132,3.846 47.939,-5.011 8,5.35 40.678,-1.763 11.675,-3.27 10.866,-5.521 12.993,-11.877 5.504,-9.97 v -17.02 l 14.261,-6.791 45.373,81.552 49.71,58.292 23.88,21 1.55,11.2 6.03,2.66 6.71,15.7 31.11,37.93 8.14,25.87 9.39,11.74 -3.64,7.32 3.35,15.75 H 606.376" id="path307" />
      <path fill-rule="evenodd" vector-effect="none" d="" id="path308" />
      <path fill-rule="evenodd" vector-effect="none" d="" id="path309" />
      <path fill-rule="evenodd" vector-effect="none" d="" id="path310" />
      <path fill-rule="evenodd" vector-effect="none" d="" id="path311" />
      <path fill-rule="evenodd" vector-effect="none" d="m 644.903,1073.78 -5.399,-2.41 -11.214,1.53 -6.812,-4.93 7.92,-3.54 -8.46,-12.83 1.163,-11.72 5.663,-4.18 18.593,9.1 4.361,23.17 -5.815,5.81" id="path312" />
      <path fill-rule="evenodd" vector-effect="none" d="m 654.342,1087.8 3.362,4.1 -13.013,4.22 -10.745,7.64 -7.472,-4.13 -5.873,0.45 -1.609,-4.07 10.781,-5.22 12.729,-1.85 3.594,-4.52 8.246,3.38" id="path313" />
      <path fill-rule="evenodd" vector-effect="none" d="" id="path314" />
      <path fill-rule="evenodd" vector-effect="none" d="" id="path315" />
      <path fill-rule="evenodd" vector-effect="none" d="" id="path316" />
      <path fill-rule="evenodd" vector-effect="none" d="" id="path317" />
      <path fill-rule="evenodd" vector-effect="none" d="" id="path318" />
      <path fill-rule="evenodd" vector-effect="none" d="m 1392.72,1082.46 2.7,6.07 -3.86,8 -3.24,1.3 -8.55,-2.68 -3.68,-6.15 4.5,-4.21 12.13,-2.33" id="path319" />
      <path fill-rule="evenodd" vector-effect="none" d="" id="path320" />
      <path fill-rule="evenodd" vector-effect="none" d="" id="path321" />
      <path fill-rule="evenodd" vector-effect="none" d="m 619.194,1057.06 3.752,2.8 -1.468,3.46 -14.993,-6.96 5.482,-7.96 7.227,8.66" id="path322" />
      <path fill-rule="evenodd" vector-effect="none" d="" id="path323" />
      <path fill-rule="evenodd" vector-effect="none" d="" id="path324" />
      <path fill-rule="evenodd" vector-effect="none" d="m 342.911,1008.52 1.593,4.33 -2.354,1.36 -8.542,-0.94 4.652,3.38 -3.475,2.16 -12.128,-4.26 1.772,-6.03 h 18.482" id="path325" />
      <path fill-rule="evenodd" vector-effect="none" d="" id="path326" />
      <path fill-rule="evenodd" vector-effect="none" d="" id="path327" />
      <path fill-rule="evenodd" vector-effect="none" d="" id="path328" />
      <path fill-rule="evenodd" vector-effect="none" d="" id="path329" />
      <path fill-rule="evenodd" vector-effect="none" d="" id="path330" />
      <path fill-rule="evenodd" vector-effect="none" d="m 662.957,1131.91 -0.069,3.8 -12.627,5.92 3.655,-9.06 -3.405,-5.38 6.105,-0.81 6.341,5.53" id="path331" />
      <path fill-rule="evenodd" vector-effect="none" d="" id="path332" />
      <path fill-rule="evenodd" vector-effect="none" d="" id="path333" />
      <path fill-rule="evenodd" vector-effect="none" d="" id="path334" />
      <path fill-rule="evenodd" vector-effect="none" d="m 608.741,1038.8 8.044,1.76 -4.139,5.08 -15.949,0.31 3.738,-8.73 8.306,1.58" id="path335" />
      <path fill-rule="evenodd" vector-effect="none" d="" id="path336" />
      <path fill-rule="evenodd" vector-effect="none" d="" id="path337" />
      <path fill-rule="evenodd" vector-effect="none" d="" id="path338" />
      <path fill-rule="evenodd" vector-effect="none" d="" id="path339" />
      <path fill-rule="evenodd" vector-effect="none" d="" id="path340" />
      <path fill-rule="evenodd" vector-effect="none" d="" id="path341" />
      <path fill-rule="evenodd" vector-effect="none" d="" id="path342" />
      <path fill-rule="evenodd" vector-effect="none" d="" id="path343" />
      <path fill-rule="evenodd" vector-effect="none" d="m 575.501,1136.53 0.83,-6.72 9.262,6.06 -6.396,3.57 -3.696,-2.91" id="path344" />
      <path fill-rule="evenodd" vector-effect="none" d="m 640.861,1127.86 2.423,2.99 -6.826,5.13 -3.821,-1.22 -0.069,-4.35 4.402,-2.82 3.891,0.27" id="path345" />
      <path fill-rule="evenodd" vector-effect="none" d="" id="path346" />
      <path fill-rule="evenodd" vector-effect="none" d="" id="path347" />
      <path fill-rule="evenodd" vector-effect="none" d="" id="path348" />
      <path fill-rule="evenodd" vector-effect="none" d="" id="path349" />
      <path fill-rule="evenodd" vector-effect="none" d="" id="path350" />
      <path fill-rule="evenodd" vector-effect="none" d="" id="path351" />
      <path fill-rule="evenodd" vector-effect="none" d="" id="path352" />
      <path fill-rule="evenodd" vector-effect="none" d="" id="path353" />
      <path fill-rule="evenodd" vector-effect="none" d="m 340.156,1031.24 -0.387,6.36 -5.04,1.62 -1.37,-4.23 6.797,-3.75" id="path354" />
      <path fill-rule="evenodd" vector-effect="none" d="" id="path355" />
      <path fill-rule="evenodd" vector-effect="none" d="" id="path356" />
      <path fill-rule="evenodd" vector-effect="none" d="" id="path357" />
      <path fill-rule="evenodd" vector-effect="none" d="m 505.475,1059.76 3.059,1.19 -3.129,3.49 0.07,-4.68" id="path358" />
      <path fill-rule="evenodd" vector-effect="none" d="m 626.839,1024.08 -7.423,0.79 -16.752,6.62 -13.79,0.84 -5.233,3.66 1.786,14.55 -8.141,-1.26 -3.987,-10.12 -4.098,-0.32 -1.204,-11.63 -7.31,2.77 -9.068,-9.84 -2.617,1.74 7.158,13.46 -10.979,-3.75 -14.745,-16.79 -5.067,-1.36 -0.997,-7.03 -34.431,-6.691 -3.06,1.201 -0.124,2.74 3.115,2.86 13.415,2.49 0.499,4.26 h 6.977 l -3.489,4.65 h 6.964 l -9.303,4.53 -9.262,-4.53 1.799,11.71 -3.087,3.28 3.586,2.43 -5.939,2.81 1.855,6.97 -6.147,-0.37 -2.285,-3.33 -7.088,2.48 -0.222,-4.02 -9.012,11.05 -15.202,2.52 -6.424,6.94 -2.118,-1.82 4.887,-12.69 4.527,1.08 9.276,-3.38 -11.505,-1.27 2.146,-2.43 11.215,-4.54 11.629,0.85 0.581,-4.34 -5.15,0.63 -3.101,-3.06 5.275,-6.23 -10.965,-4.45 -3.614,1.4 1.274,2.31 -8.224,1.17 7.56,2.93 2.879,5.3 -7.697,-3.76 -8.556,0.18 4.748,3.58 -11.726,5.82 -1.246,-2.33 h -10.466 l 11.712,-9.4 -8.722,-6.22 0.498,-3.07 -3.392,0.53 -5.371,8.23 -5.427,2.31 -27.8,-6.53 0.055,-5.7 -5.787,2.43 2.16,-4.72 11.879,-4.36 12.21,3.16 7.075,-1.68 0.36,-3.07 -3.78,1.36 -6.797,-3.82 -1.468,-5.479 16.157,-2.513 7.601,4.982 1.162,-5.757 3.489,-1.44 -1.495,-2.644 -21.141,-3.378 -21.625,6.022 -21.819,-11.782 -3.364,4.181 -12.197,1.579 -21.529,-4.749 1.08,-1.952 12.17,-1.828 4.79,-4.769 8.251,-1.696 5.815,-6.978 6.687,0.928 4.361,5.468 12.266,-6.396 -13.263,-0.36 -7.268,-4.859 1.26,-14.897 11.491,-17.915 4.236,-1.98 0.083,3.704 7.435,-9.795 -5.516,-15.99 9.132,0.114 3.507,3.879 7.576,-4.262 4.293,2.253 -0.787,-14.639 5.651,5.887 3.917,-0.499 0.03,-6.013 4.03,2.968 10.855,-3.02 5.74,2.297 11.581,-6.457 12.384,1.452 3.53,-3.579 7.56,3.579 2.325,5.711 4.154,-4.548 6.936,6.376 10.426,2.271 -2.917,-5.18 -6.997,-1.245 -10.439,-9.289 -8.251,-1.156 -5.33,-8.425 -6.272,3.773 3.96,3.115 -2.528,1.275 -5.116,2.01 -5.619,-2.911 -2.575,2.907 -6.812,-2.907 1.246,4.644 -5.219,0.672 -5.815,-4.257 3.973,-4.548 -4.402,-6.473 -2.686,-0.505 -1.469,9.59 -4.837,0.189 -8.66,-11.046 2.509,-14.97 7.941,-16.081 12.276,-16.085 10.93,-0.482 -8.673,-1.04 0.56,-10.68 9.553,-2.817 -2.492,-4.153 2.506,-3.33 11.449,-0.159 -2.949,-5.441 8.736,-11.027 -4.873,-1.641 -1.98,-7.552 3.364,1.28 5.926,-4.755 -17.389,-2.326 4.513,-7.075 -6.977,1.156 0.595,-4.437 8.708,-7.171 2.797,-6.286 4.818,-1.502 1.661,-4.036 -1.163,-2.229 -27.038,10.751 -12.876,-8.826 2.534,-3.087 h -11.505 l 2.326,4.651 -9.234,-0.339 -3.309,-6.271 -8.473,-0.25 -15.215,-9.836 -3.475,2.755 -6.161,-2.762 -3.406,-7.165 -18.875,-6.404 -4.176,-6.997 1.873,16.168 -0.692,2.628 -3.954,1.219 2.399,3.562 -8.317,1.159 -7.818,4.325 -1.975,3.681 -4.534,-6.493 5.834,-6.944 0.321,-4.782 -3.946,0.685 -6.631,-5.109 0.734,-7.192 -4.68,-3.544 0.416,-4.693 -24.893,-1.745 -3.6,-6.978 -5.787,-1.052 -6.977,-6.964 8.237,-4.651 2.229,-10.661 3.863,-4.271 15.963,0.893 -15.202,-2.326 -6.853,-10.563 30.399,-20.859 3.781,-5.363 12.202,-7.121 11.886,-2.725 4.888,-10.216 10.145,-4.035 16.106,-15.235 6.769,4.774 18.031,-0.941 -4.422,-8.027 1.67,-4.439 39.297,-13.723 6.33,-5.706 20.405,2.857 0.324,-3.555 1.9,-3.144 4.536,-0.378 4.387,-7.719 11.517,-1.222 4.299,-10.03 6.497,4.017 12.369,-1.292 -6.435,-7.095 10.083,-8.269 7.113,-1.524 2.558,-2.981 10.382,2.708 10.761,-4.721 8.668,3.42 12.194,-3.727 0.369,-2.48 -5.011,0.044 1.952,-2.505 9.099,-2.778 5.125,-8.915 4.835,-2.057 -0.466,-2.198 6.268,-5.934 -2.452,-3.156 25.688,-13.108 5.916,-9.398 22.348,-23.912 5.38,-3.086 4.897,0.071 -2.321,3.692 5.864,-1.284 -3.543,-14.022 12.923,-21.679 -1.741,-8.906 8.651,-8.809 8.748,-0.202 9.978,-5.806 -8.247,-5.908 8.132,-0.158 10.436,6.975 3.446,-5.771 9.512,-2.967 3.798,-6.405 7.262,-2.742 2.778,5.929 9.099,2.409 7.323,3.297 5.776,8.822 -4.704,0.519 1.706,5.859 20.536,9.89 -7.349,2.708 -5.416,5.415 5.099,2.62 3.622,-1.45 4.044,2.312 4.66,-4.932 12.65,2.532 1.416,2.127 -3.526,2.312 6.137,1.75 12.563,-0.703 8.228,2.672 7.956,-2.672 11.702,1.274 2.707,5.627 13.53,4.826 4.141,-2.91 31.675,2.664 5.547,-5.029 10.673,-1.696 5.108,3.49 4.624,-3.49 2.338,9.793 6.031,-1.266 2.304,5.495 6.769,-1.899 2.426,1.046 -2.426,2.435 7.174,0.475 6.734,-4.783 19.956,-30.444 -8.862,-13.051 -15.613,-8.795 -11.587,-22.102 -7.349,-3.784 -4.66,-17.196 2.409,-4.879 38.682,-6.655 40.897,6.255 10.55,-0.8 7.4,-4.998 h 17.25 l 1.99,-2.963 27.59,2.923 9.68,-0.844 4.05,-9.042 10.67,-2.272 6.28,-5.82 0.21,-3.007 9.37,0.748 15.54,-12.009 -5.17,-3.939 8.04,-9.292 -5.8,-3.49 7.2,-0.959 -0.03,-8.589 11.52,-2.589 3.86,-6.325 4.36,1.046 -2.04,-4.229 7.85,2.954 8.14,-2.211 17.19,12.172 3.24,-1.244 1.53,-4.633 4.17,-1.235 0.68,-6.224 18.99,0.949 4.34,-5.697 1.3,-18.593 4.52,-3.587 -3.65,-3.873 1.61,-2.369 4.36,-0.725 1.85,-5.047 -5.1,-4.558 0.63,-7.213 15.39,-36.721 9.41,-2.422 -4.65,-3.385 5.01,-2.11 14.72,7.917 21.4,-3.394 1.53,3.807 -5.4,6.457 23.86,3.279 2.97,6.013 -2.28,21.016 3.34,5.912 10.56,9.921 17.52,8.664 4.15,8.473 3.21,-3.436 -2.7,-2.619 4.94,-4.229 2.93,-0.132 5,13.662 9.63,16.752 9.94,5.296 2.88,13.662 6.33,4.331 -17.42,5.5 -0.44,-6.019 -14.42,-6.399 -7.58,0.174 0.64,2.157 -4.99,2.203 -5.55,-2.629 -3.97,5.68 2.85,8.284 -5.6,-2.244 0.32,4.028 -5.92,3.064 -0.75,3.826 -4.02,1.422 1.47,-6.079 -3.65,-3.089 -11.09,9.287 -4.55,1.514 -0.5,12.291 -4.32,0.429 -2.47,4.414 -6.69,-2.934 -8,1.978 -6.67,14.11 -3.22,-3.213 -5.57,5.402 3.49,3.475 -4.74,3.502 -1.73,7.296 -11.56,-0.938 -2.07,13.627 -5.46,10.078 -6.66,-2.179 -6.56,3.116 -5.68,12.827 -8.6,5.835 -7.15,17.066 1.81,14.419 24.96,15.073 -8,14.149 -8.03,28.963 2.79,24.484 6.22,5.834 -6.75,16.433 -1.47,2.251 -3.1,-1.875 -21.53,1.002 -3.53,5.036 -5.6,2.492 -15.51,2.411 -12.8,6.116 -8.25,12.197 -5.63,-5.84 -6.23,0.385 -12.4,24.007 -14.13,15.657 -17.31,2.149 -19.61,14.985 -18.46,6.253 -10.92,0.663 -3.09,3.475 -5.64,-0.416 -3.41,7.106 6.85,2.434 1.33,9.51 -6.07,3.568 -6.848,-1.09 -7.726,3.386 -2.64,3.971 -8.145,1.476 -7.631,5.231 -11.939,1.21 -6.297,11.683 -10.94,-8.317 -6.058,3.555 1.114,4.566 -13.484,2.222 -25.225,-4.908 -1.537,4.209 -5.801,2.776 -4.029,4.991 -5.677,-1.562 -5.454,15.503 -15.783,1.26 2.077,3.358 -16.721,2.971 -5.522,7.043 -6.727,-4.106 -17.506,14.284 -3.323,6.763 1.855,9.823 6.895,2.16 3.71,7.102 -9.206,14.388 7.24,28.364 -1.453,6.424 -5.552,-1.745 3.475,-9.4 -8.016,-10.536 -2.077,-0.609 -7.629,5.414 -10.147,4.478 8.016,3.696 7.144,-1.142 0.996,2.769 -8.14,2.908 -5.718,-1.939 -3.387,17.257 3.636,6.584 10.01,6.084 3.35,-0.394 0.249,-4.257 3.046,-0.27 6.881,8.293 12.792,-1.004 11.685,5.766 14.233,0.194 22.012,26.478 4.361,-0.478 17.071,18.04 13.014,2.45 20.254,19.736 12.35,-4.652 13.069,13 0.9,9.241 -14.261,6.791 v 17.02 l -5.504,9.97 -12.993,11.877 -10.866,5.521 -11.675,3.27 -40.678,1.763 -8,-5.35 -47.939,5.011 -16.132,-3.846 -37.363,1.921 -11.402,3.635 -21.163,12.388 -4.412,6.612 -3.454,6.732 -12.334,8.945 -14.532,17.524 -16.352,7.04 0.284,18.68 -2.694,4.86 -12.834,3.7 -23.744,-12.06 -5.95,-6.91" id="path359" />
      <path fill-rule="evenodd" vector-effect="none" d="m 375.926,732.189 -2.903,1.911 4.072,7.317 -19.572,9.374 6.534,-5.521 -2.416,-1.791 6.414,-12.594 7.871,1.304" id="path360" />
      <path fill-rule="evenodd" vector-effect="none" d="m 444.323,1044.89 -5.621,6.65 -11.809,5.32 4.056,-6.01 4.154,-0.37 0.83,-2.65 8.39,-2.94" id="path361" />
      <path fill-rule="evenodd" vector-effect="none" d="m 368.566,915.281 3.488,5.815 -13.941,-4.763 -3.835,2.361 -0.858,-4.327 8.472,-3.613 6.674,4.527" id="path362" />
      <path fill-rule="evenodd" vector-effect="none" d="m 335.145,742.404 -15.243,0.028 5.69,-3.489 7.31,-0.942 4.126,1.315 -1.883,3.088" id="path363" />
      <path fill-rule="evenodd" vector-effect="none" d="m 413.519,1041.68 -1.08,-2.37 8.016,-3.33 0.748,1.36 -7.684,4.34" id="path364" />
      <path fill-rule="evenodd" vector-effect="none" d="m 393.569,1033.07 1.924,3.21 -6.244,2 -1.232,-1.28 5.22,-0.98 0.332,-2.95" id="path365" />
      <path fill-rule="evenodd" vector-effect="none" d="m 254.784,697.747 2.614,-2.37 1.975,3.287 -3.137,1.752 -1.452,-2.669" id="path366" />
      <path fill-rule="evenodd" vector-effect="none" d="m 335.255,745.394 3.421,-0.55 -1.704,4.731 -2.997,-0.873 1.28,-3.308" id="path367" />
      <path fill-rule="evenodd" vector-effect="none" d="m 319.666,761.883 -0.539,-2.817 3.35,-1.759 1.107,4.105 -3.918,0.471" id="path368" />
    </g>
    <g stroke-linejoin="bevel" fill="none" font-family="'.AppleSystemUIFont'" font-style="normal" font-weight="400" stroke="#000000" font-size="54.1667px" stroke-linecap="square" stroke-opacity="1" stroke-width="1" id="g369" />
    <g stroke-linejoin="bevel" fill="none" font-family="'.AppleSystemUIFont'" font-style="normal" font-weight="400" stroke="#000000" transform="scale(11.811)" font-size="54.1667px" stroke-linecap="square" stroke-opacity="1" stroke-width="1" id="g370" />
    <g stroke-linejoin="bevel" fill="none" font-family="'.AppleSystemUIFont'" font-style="normal" font-weight="400" stroke="#000000" transform="scale(11.811)" font-size="54.1667px" stroke-linecap="square" stroke-opacity="1" stroke-width="1" id="g371" />
    <g stroke-linejoin="bevel" fill="none" font-family="'.AppleSystemUIFont'" font-style="normal" font-weight="400" stroke="#000000" transform="scale(11.811)" font-size="54.1667px" stroke-linecap="square" stroke-opacity="1" stroke-width="1" id="g372" />
    <g stroke-linejoin="bevel" fill="none" font-family="'.AppleSystemUIFont'" font-style="normal" font-weight="400" stroke="#000000" font-size="54.1667px" stroke-linecap="square" stroke-opacity="1" stroke-width="1" id="g373" />
    <g stroke-linejoin="bevel" fill="none" font-family="'.AppleSystemUIFont'" font-style="normal" font-weight="400" stroke="#000000" transform="scale(11.811)" font-size="54.1667px" stroke-linecap="square" stroke-opacity="1" stroke-width="1" id="g374" />
    <g stroke-linejoin="bevel" fill="none" font-family="'.AppleSystemUIFont'" font-style="normal" font-weight="400" stroke="#000000" transform="scale(11.811)" font-size="54.1667px" stroke-linecap="square" stroke-opacity="1" stroke-width="1" id="g375" />
    <g stroke-linejoin="bevel" fill="none" font-family="'.AppleSystemUIFont'" font-style="normal" font-weight="400" stroke="#000000" font-size="54.1667px" stroke-linecap="square" stroke-opacity="1" stroke-width="1" id="g376" />
  </g>
  <defs id="defs376" />
  <g stroke-linejoin="bevel" fill="none" inkscape:label="Map 1: world_map — states_provinces" fill-rule="evenodd" id="Map 1: world_map — states_provinces" stroke="#000000" stroke-linecap="square" stroke-width="1" inkscape:groupmode="layer" style="display:inline;stroke-width:3.125;stroke-dasharray:none">
    <g stroke-linejoin="bevel" fill="none" font-family="'.AppleSystemUIFont'" font-style="normal" font-weight="400" stroke="#000000" font-size="54.1667px" stroke-linecap="square" stroke-opacity="1" stroke-width="1" id="g377" style="stroke-width:3.125;stroke-dasharray:none" />
    <g stroke-linejoin="bevel" fill="none" font-family="'.AppleSystemUIFont'" font-style="normal" font-weight="400" stroke="#000000" font-size="54.1667px" stroke-linecap="square" stroke-opacity="1" stroke-width="1" id="g378" style="stroke-width:3.125;stroke-dasharray:none" />
    <g stroke-linejoin="bevel" fill="none" font-family="'.AppleSystemUIFont'" font-style="normal" font-weight="400" stroke="#000000" transform="scale(11.811)" font-size="54.1667px" stroke-linecap="square" stroke-opacity="1" stroke-width="1" id="g379" style="stroke-width:0.264584;stroke-dasharray:none" />
    <g stroke-linejoin="bevel" fill="none" font-family="'.AppleSystemUIFont'" font-style="normal" font-weight="400" stroke="#000000" transform="scale(11.811)" font-size="54.1667px" stroke-linecap="square" stroke-opacity="1" stroke-width="1" id="g380" style="stroke-width:0.264584;stroke-dasharray:none" />
    <g fill="#000000" font-family="'.AppleSystemUIFont'" font-style="normal" fill-opacity="0" font-weight="400" stroke="none" font-size="54.1667px" id="g381" style="stroke-width:3.125;stroke-dasharray:none">
      <rect x="0" width="1920" height="1080" y="0" id="rect380" style="stroke-width:3.125;stroke-dasharray:none" />
    </g>
    <g stroke-linejoin="bevel" fill="none" font-family="'.AppleSystemUIFont'" font-style="normal" font-weight="400" stroke="#000000" font-size="54.1667px" stroke-linecap="square" stroke-opacity="1" stroke-width="1" id="g382" style="stroke-width:3.125;stroke-dasharray:none" />
    <g stroke-linejoin="bevel" fill="none" font-family="'.AppleSystemUIFont'" font-style="normal" font-weight="400" stroke="#4daf4a" font-size="54.1667px" stroke-linecap="square" stroke-opacity="1" stroke-width="11.3386" id="g427" style="stroke-width:3.125;stroke-dasharray:none">
      <path fill-rule="evenodd" vector-effect="none" d="m 732.929,800.304 6.488,7.463 -8.457,4.576 -5.433,10.976 -13.169,0.501 -29.68,-13.547 -16.07,1.723 -9.952,-5.244 -2.726,7.921 16.792,22.813 -12.835,2.062 -13.064,-4.629 -3.798,4.066 2.567,7.077 -2.514,4.005 -16.686,-3.169 -7.315,-19.491 -14.998,-6.549 -4.448,-12.546 -9.108,0.203 -6.523,-4.625 -7.736,-0.206 -8.036,-8.361 -3.745,3.328 -8.598,1.648 -6.154,-4.655 -6.786,0.422 -6.014,11.64 -4.518,-9.213 -20.027,-11.456 -16.581,8.001 2.497,15.068 5.363,4.092 -15.121,10.308 4.589,21.038 -4.378,10.321 -7.93,2.83 -1.6,2.559 9.002,11.165 9.354,20.668 -6.997,-1.245 -10.439,-9.289 -8.251,-1.156 -5.33,-8.425 -6.272,3.773 3.96,3.115 -2.528,1.275 -5.116,2.01 -5.619,-2.911 -2.575,2.907 -6.812,-2.907 1.246,4.644 -5.219,0.672 -5.815,-4.257 3.973,-4.548 -4.402,-6.473 -2.686,-0.505 -1.469,9.59 -4.837,0.189 -8.66,-11.046 2.509,-14.97 7.941,-16.081 12.276,-16.085 10.93,-0.482 -8.673,-1.04 0.56,-10.68 9.553,-2.817 -2.492,-4.153 2.506,-3.33 11.449,-0.159 -2.949,-5.441 8.736,-11.027 -4.873,-1.641 -1.98,-7.552 3.364,1.28 5.926,-4.755 -17.389,-2.326 4.513,-7.075 -6.977,1.156 0.595,-4.437 8.708,-7.171 2.797,-6.286 4.818,-1.502 1.661,-4.036 18.788,-4.392 13.433,-6.62 7.947,0.484 13.416,-4.712 8.017,-4.378 8.211,-10.224 6.945,-1.433 7.579,-5.565 11.551,-12.071 14.506,6.523 27.007,-5.481 15.895,-6.106 2.901,-4.879 -5.082,-8.712 3.411,-8.339 11.201,4.48 12.202,-6.176 8.281,-1.42 7.42,-11.561 18.954,-8.272 7.49,-6.022 9.372,-2.189 3.692,-7.222 11.077,-8.814 4.203,-6.782 15.49,-0.312 9.16,2.699 9.003,7.138 1.055,15.574 10.532,6.677 -2.673,5.525 -13.099,8.488 0.088,5.17 -4.624,2.65 9.002,23.864 -3.798,4.941 -9.16,1.103 -4.589,3.011 -12.414,-6.734 h -10.936 l -15.121,4.396 -10.374,17.512 5.363,5.983 -8.264,7.973 1.547,9.394 -6.875,11.974 11.077,11.028 -6.312,18.721 1.407,7.715 4.8,1.912 13.75,-2.462 5.503,7.178 9.934,-2.505 3.499,11.798 16.299,1.886" id="path382" style="stroke-width:3.125;stroke-dasharray:none" />
      <path fill-rule="evenodd" vector-effect="none" d="m 1009.38,1171.53 -24.14,-8.82 -14.91,1.77 -5.996,-8.95 -16.334,2.67 -4.273,-2.74 9.794,-9.98 -22.26,-4.66 -26.04,8.85 -8.58,-11.48 -8.668,2.34 -3.218,3.14 0.932,8.27 -5.908,3.92 -13.275,-0.58 1.46,-8.21 -36.062,5.91 27.27,-46.24 0.317,-7.64 10.532,-10.28 -4.466,-4.34 -45.1,-12.01 2.849,-12.45 -4.501,1.15 -2.022,-2.07 4.958,-4.62 -1.6,-13.84 12.132,-5.94 2.831,-9.27 -12.853,-11.59 -12.185,-2.47 -5.732,-17.319 -13.363,1.354 -11.85,-4.431 1.758,-9.231 -12.642,5.521 -5.538,-5.767 -3.992,11.147 -16.07,-7.85 -7.877,-10.269 -11.897,-5.568 21.163,-12.388 11.402,-3.635 37.363,-1.921 16.132,3.846 47.939,-5.011 8,5.35 40.678,-1.763 11.675,-3.27 10.866,-5.521 12.993,-11.877 5.504,-9.97 v -17.02 l 14.261,-6.791 45.373,81.552 49.71,58.292 23.88,21 1.55,11.2 6.03,2.66 6.71,15.7 31.11,37.93 8.14,25.87 9.39,11.74 -3.64,7.32 3.35,15.75 h -56.82 l 0.42,-8.58 6.08,-2.72 4.96,1.57 4.03,-2.41 -1.65,-3.92 -11.13,-3.64 -9.08,2.85 -20.57,-4.88 -9.93,4.61 0.03,-5.94 -13.27,-5.42 -7.72,4.75 -0.42,11.73 -17.99,-4.47" id="path383" style="stroke-width:3.125;stroke-dasharray:none" />
      <path fill-rule="evenodd" vector-effect="none" d="m 748.349,1081.66 12.115,-1.23 1.301,2.47 -0.457,2.54 -4.959,2.32 1.424,4.3 -4.536,5.39 -14.259,4.97 -1.952,-3.56 -21.873,3.4 -13.31,-8.17 -8.299,-12.62 2.55,-4.35 14.259,1.79 3.605,-1.74 1.265,-5.62 7.631,-0.58 9.706,-10.86 11.429,-0.61 5.82,13.18 -1.46,8.98" id="path384" style="stroke-width:3.125;stroke-dasharray:none" />
      <path fill-rule="evenodd" vector-effect="none" d="m 486.227,872.419 -9.002,-11.165 1.6,-2.559 7.93,-2.83 4.378,-10.321 -4.589,-21.038 15.121,-10.308 -5.363,-4.092 -2.497,-15.068 16.581,-8.001 20.027,11.456 4.518,9.213 6.014,-11.64 6.786,-0.422 6.154,4.655 8.598,-1.648 3.745,-3.328 8.036,8.361 7.736,0.206 6.523,4.625 9.108,-0.203 4.448,12.546 14.998,6.549 7.315,19.491 -26.55,-9.214 -7.561,-0.809 -5.38,3.367 -3.499,-0.742 -2.76,10.307 15.806,13.231 1.354,8.893 -2.198,3.169 -9.424,2.497 -8.738,6.91 -10.48,0.052 -16.14,-6.228 -3.341,-7.671 -20.748,-8.096 -15.701,-0.071 -22.805,9.926" id="path385" style="stroke-width:3.125;stroke-dasharray:none" />
      <path fill-rule="evenodd" vector-effect="none" d="m 718.449,975.569 4.412,-6.612 11.897,5.568 7.877,10.269 16.07,7.85 3.992,-11.147 5.538,5.767 12.642,-5.521 -1.758,9.231 11.85,4.431 13.363,-1.354 5.732,17.319 12.185,2.47 12.853,11.59 -2.831,9.27 -12.132,5.94 1.6,13.84 -4.958,4.62 2.022,2.07 4.501,-1.15 -2.849,12.45 45.1,12.01 4.466,4.34 -10.532,10.28 -0.317,7.64 -27.27,46.24 -15.192,19.91 -4.272,2.39 -4.29,-1.59 -6.101,7.2 -7.139,3.92 -0.975,3.19 H 751.01 l -0.111,-0.06 -0.166,0.06 h -22.861 l 0.819,-0.49 -1.052,-6.55 7.697,-2.58 0.443,-1.97 -10.175,2.29 -2.229,8.18 -9.595,0.41 -15.018,-12.41 10.187,-0.9 -2.313,-2.31 6.854,1.25 -4.735,-9.43 1.246,-4.49 -3.406,0.88 -3.627,9.1 -15.977,-1.96 1.571,-11.71 5.057,-3.62 11.799,-1.94 1.218,-4.28 -6.95,2.86 -4.679,-4.54 -16.918,10.32 -2.866,-2.49 3.544,-4.35 -6.534,0.52 0.373,-4.05 8.224,-4.63 -6.604,-0.82 -3.696,-6.23 2.326,-1.26 16.239,1.26 2.451,5.81 6.327,-9.23 8.763,1.11 -30.775,-10.99 5.146,-7.58 8.862,-3.31 4.027,-7.92 -6.172,-10.89 -10.022,-7.65 -16.472,0.46 -7.363,-9.87 -4.353,-27.37 21.597,1.75 -0.069,14.55 15.949,5.87 -13,-8.23 3.696,-9.65 -2.658,-8.61 2.562,-6.13 -5.53,0.31 -0.284,-18.68 16.352,-7.04 14.532,-17.524 12.334,-8.945 3.454,-6.732" id="path386" style="stroke-width:3.125;stroke-dasharray:none" />
      <path fill-rule="evenodd" vector-effect="none" d="m 748.349,1081.66 1.46,-8.98 -5.82,-13.18 -11.429,0.61 -9.706,10.86 -7.631,0.58 -1.265,5.62 -3.605,1.74 -14.259,-1.79 -2.55,4.35 8.299,12.62 13.31,8.17 21.873,-3.4 1.952,3.56 14.259,-4.97 4.536,-5.39 -1.424,-4.3 4.959,-2.32 0.457,-2.54 -1.301,-2.47 -12.115,1.23" id="path387" style="stroke-width:3.125;stroke-dasharray:none" />
      <path fill-rule="evenodd" vector-effect="none" d="m 644.903,1073.78 -5.399,-2.41 -11.214,1.53 -6.812,-4.93 7.92,-3.54 -8.46,-12.83 1.163,-11.72 5.663,-4.18 18.593,9.1 4.361,23.17 -5.815,5.81" id="path388" style="stroke-width:3.125;stroke-dasharray:none" />
      <path fill-rule="evenodd" vector-effect="none" d="m 619.194,1057.06 3.752,2.8 -1.468,3.46 -14.993,-6.96 5.482,-7.96 7.227,8.66" id="path389" style="stroke-width:3.125;stroke-dasharray:none" />
      <path fill-rule="evenodd" vector-effect="none" d="m 342.911,1008.52 1.593,4.33 -2.354,1.36 -8.542,-0.94 4.652,3.38 -3.475,2.16 -12.128,-4.26 1.772,-6.03 h 18.482" id="path390" style="stroke-width:3.125;stroke-dasharray:none" />
      <path fill-rule="evenodd" vector-effect="none" d="m 662.957,1131.91 -0.069,3.8 -12.627,5.92 3.655,-9.06 -3.405,-5.38 6.105,-0.81 6.341,5.53" id="path391" style="stroke-width:3.125;stroke-dasharray:none" />
      <path fill-rule="evenodd" vector-effect="none" d="m 608.741,1038.8 8.044,1.76 -4.139,5.08 -15.949,0.31 3.738,-8.73 8.306,1.58" id="path392" style="stroke-width:3.125;stroke-dasharray:none" />
      <path fill-rule="evenodd" vector-effect="none" d="m 575.501,1136.53 0.83,-6.72 9.262,6.06 -6.396,3.57 -3.696,-2.91" id="path393" style="stroke-width:3.125;stroke-dasharray:none" />
      <path fill-rule="evenodd" vector-effect="none" d="m 640.861,1127.86 2.423,2.99 -6.826,5.13 -3.821,-1.22 -0.069,-4.35 4.402,-2.82 3.891,0.27" id="path394" style="stroke-width:3.125;stroke-dasharray:none" />
      <path fill-rule="evenodd" vector-effect="none" d="m 340.156,1031.24 -0.387,6.36 -5.04,1.62 -1.37,-4.23 6.797,-3.75" id="path395" style="stroke-width:3.125;stroke-dasharray:none" />
      <path fill-rule="evenodd" vector-effect="none" d="m 505.475,1059.76 3.059,1.19 -3.129,3.49 0.07,-4.68" id="path396" style="stroke-width:3.125;stroke-dasharray:none" />
      <path fill-rule="evenodd" vector-effect="none" d="m -192,-108 h 98.1609 l 19.8137,19.5415 -4.7297,31.086 4.0616,4.6155 7.5781,1.3978 46.3302,-13.7057 7.332,-5.5956 15.03313,-2.4088 16.14967,-9.5079 22.8134,-8.9759 15.1738,-11.2969 9.2397,-3.103 4.2462,6.3119 -0.4396,16.7123 9.1606,6.277 13.3012,25.7498 18.0051,9.622 0.342,9.2529 -5.784,5.2572 -0.818,4.1143 34.743,60.5106 -1.661,12.6155 -3.833,3.8375 -12.853,-4.9012 0.211,7.7188 -10.98,6.6286 -0.818,9.2924 25.416,12.4046 12.017,1.811 6.014,5.222 15.367,1.9693 -7.262,24.4225 1.108,5.367 -6.752,15.556 -45.249,12.695 -9.2921,-0.712 -6.5583,3.011 -13.5034,9.305 -7.1562,18.638 -12.3078,7.49 -17.3365,0.73 -12.3781,7.024 -22.02228,2.145 -40.17632,-17.336 -22.9893,-3.288 -4.044,2.224 -0.9494,4.352 11.9034,18.22 -3.455,7.626 -21.9871,4.339 -15.8155,-8.005 -24.6861,-6.18 -13.459,4.307 -5.442,3.772 -9.556,22.761 -19.957,8.958 -6.259,4.976 -16.106,0.044 -6.905,-6.984 V -108" id="path397" style="stroke-width:3.125;stroke-dasharray:none" />
      <path fill-rule="evenodd" vector-effect="none" d="m 626.839,1024.08 -7.423,0.79 -16.752,6.62 -13.79,0.84 -5.233,3.66 1.786,14.55 -8.141,-1.26 -3.987,-10.12 -4.098,-0.32 -1.204,-11.63 -7.31,2.77 -9.068,-9.84 -2.617,1.74 7.158,13.46 -10.979,-3.75 -14.745,-16.79 -5.067,-1.36 -0.997,-7.03 -34.431,-6.691 -3.06,1.201 -0.124,2.74 3.115,2.86 13.415,2.49 0.499,4.26 h 6.977 l -3.489,4.65 h 6.964 l -9.303,4.53 -9.262,-4.53 1.799,11.71 -3.087,3.28 3.586,2.43 -5.939,2.81 1.855,6.97 -6.147,-0.37 -2.285,-3.33 -7.088,2.48 -0.222,-4.02 -9.012,11.05 -15.202,2.52 -6.424,6.94 -2.118,-1.82 4.887,-12.69 4.527,1.08 9.276,-3.38 -11.505,-1.27 2.146,-2.43 11.215,-4.54 11.629,0.85 0.581,-4.34 -5.15,0.63 -3.101,-3.06 5.275,-6.23 -10.965,-4.45 -3.614,1.4 1.274,2.31 -8.224,1.17 7.56,2.93 2.879,5.3 -7.697,-3.76 -8.556,0.18 4.748,3.58 -11.726,5.82 -1.246,-2.33 h -10.466 l 11.712,-9.4 -8.722,-6.22 0.498,-3.07 -3.392,0.53 -5.371,8.23 -5.427,2.31 -27.8,-6.53 0.055,-5.7 -5.787,2.43 2.16,-4.72 11.879,-4.36 12.21,3.16 7.075,-1.68 0.36,-3.07 -3.78,1.36 -6.797,-3.82 -1.468,-5.479 16.157,-2.513 7.601,4.982 1.162,-5.757 3.489,-1.44 -1.495,-2.644 -21.141,-3.378 -21.625,6.022 -21.819,-11.782 -3.364,4.181 -12.197,1.579 -21.529,-4.749 1.08,-1.952 12.17,-1.828 4.79,-4.769 8.251,-1.696 5.815,-6.978 6.687,0.928 4.361,5.468 12.266,-6.396 -13.263,-0.36 -7.268,-4.859 1.26,-14.897 11.491,-17.915 4.236,-1.98 0.083,3.704 7.435,-9.795 -5.516,-15.99 9.132,0.114 3.507,3.879 7.576,-4.262 4.293,2.253 -0.787,-14.639 5.651,5.887 3.917,-0.499 0.03,-6.013 4.03,2.968 10.855,-3.02 5.74,2.297 11.581,-6.457 12.384,1.452 3.53,-3.579 7.56,3.579 2.325,5.711 4.154,-4.548 6.936,6.376 10.426,2.271 3.009,16.596 6.013,9.952 -0.317,8.822 4.554,6.101 -3.604,4.198 7.736,4.761 -0.949,3.63 15.156,-0.98 12.114,13.038 3.992,10.769 27.64,-1.468 5.046,-3.416 6.435,0.128 7.385,-4.519 8.299,-1.556 26.532,8.554 5.732,8.994 -1.073,3.015 -3.71,-4.774 -6.206,6.119 3.938,12.334 0.619,25.515" id="path398" style="stroke-width:3.125;stroke-dasharray:none" />
      <path fill-rule="evenodd" vector-effect="none" d="m 444.323,1044.89 -5.621,6.65 -11.809,5.32 4.056,-6.01 4.154,-0.37 0.83,-2.65 8.39,-2.94" id="path399" style="stroke-width:3.125;stroke-dasharray:none" />
      <path fill-rule="evenodd" vector-effect="none" d="m 368.566,915.281 3.488,5.815 -13.941,-4.763 -3.835,2.361 -0.858,-4.327 8.472,-3.613 6.674,4.527" id="path400" style="stroke-width:3.125;stroke-dasharray:none" />
      <path fill-rule="evenodd" vector-effect="none" d="m 413.519,1041.68 -1.08,-2.37 8.016,-3.33 0.748,1.36 -7.684,4.34" id="path401" style="stroke-width:3.125;stroke-dasharray:none" />
      <path fill-rule="evenodd" vector-effect="none" d="m 393.569,1033.07 1.924,3.21 -6.244,2 -1.232,-1.28 5.22,-0.98 0.332,-2.95" id="path402" style="stroke-width:3.125;stroke-dasharray:none" />
      <path fill-rule="evenodd" vector-effect="none" d="m 718.449,975.569 -3.454,6.732 -12.334,8.945 -14.532,17.524 -16.352,7.04 0.284,18.68 -2.694,4.86 -12.834,3.7 -23.744,-12.06 -5.95,-6.91 -0.619,-25.515 -3.938,-12.334 6.206,-6.119 3.71,4.774 1.073,-3.015 -5.732,-8.994 -26.532,-8.554 -8.299,1.556 -7.385,4.519 -6.435,-0.128 -5.046,3.416 -27.64,1.468 -3.992,-10.769 -12.114,-13.038 -15.156,0.98 0.949,-3.63 -7.736,-4.761 3.604,-4.198 -4.554,-6.101 0.317,-8.822 -6.013,-9.952 -3.009,-16.596 -2.917,-5.18 -9.354,-20.668 22.805,-9.926 15.701,0.071 20.748,8.096 3.341,7.671 16.14,6.228 10.48,-0.052 8.738,-6.91 9.424,-2.497 2.198,-3.169 -1.354,-8.893 -15.806,-13.231 2.76,-10.307 3.499,0.742 5.38,-3.367 7.561,0.809 26.55,9.214 16.686,3.169 2.514,-4.005 -2.567,-7.077 3.798,-4.066 13.064,4.629 12.835,-2.062 -16.792,-22.813 2.726,-7.921 9.952,5.244 16.07,-1.723 29.68,13.547 13.169,-0.501 6.259,14.756 -3.112,8.023 -4.87,4.105 -11.183,1.222 -4.079,2.506 -2.549,19.028 -11.359,15.592 -6.839,4.8 -11.165,2.927 -2.796,3.847 5.75,8.162 -0.809,15.464 14.013,21.025 8.58,4.435 7.578,-0.976 -2.83,6.98 0.984,11.482 11.349,8.872" id="path403" style="stroke-width:3.125;stroke-dasharray:none" />
      <path fill-rule="evenodd" vector-effect="none" d="m 722.861,968.957 -4.412,6.612 -11.349,-8.872 -0.984,-11.482 2.83,-6.98 -7.578,0.976 -8.58,-4.435 -14.013,-21.025 0.809,-15.464 -5.75,-8.162 2.796,-3.847 11.165,-2.927 6.839,-4.8 11.359,-15.592 2.549,-19.028 4.079,-2.506 11.183,-1.222 4.87,-4.105 3.112,-8.023 -6.259,-14.756 5.433,-10.976 8.457,-4.576 -6.488,-7.463 2.409,-2.497 -1.319,-8.044 9.214,-3.824 4.026,-16.089 4.976,-4.175 50.925,0.473 -10.147,4.478 8.016,3.696 7.144,-1.142 0.996,2.769 -8.14,2.908 -5.718,-1.939 -3.387,17.257 3.636,6.584 10.01,6.084 3.35,-0.394 0.249,-4.257 3.046,-0.27 6.881,8.293 12.792,-1.004 11.685,5.766 14.233,0.194 22.012,26.478 4.361,-0.478 17.071,18.04 13.014,2.45 20.254,19.736 12.35,-4.652 13.069,13 0.9,9.241 -14.261,6.791 v 17.02 l -5.504,9.97 -12.993,11.877 -10.866,5.521 -11.675,3.27 -40.678,1.763 -8,-5.35 -47.939,5.011 -16.132,-3.846 -37.363,1.921 -11.402,3.635 -21.163,12.388" id="path404" style="stroke-width:3.125;stroke-dasharray:none" />
      <path fill-rule="evenodd" vector-effect="none" d="m 281.206,648.233 -1.467,14.821 -11.422,13.166 -4.735,1.163 -25.211,15.956 -5.109,-3.185 -5.565,3.738 -11.865,3.344 -7.407,-5.157 -9.29,3.004 -13.595,-2.499 -5.884,3.274 -22.11,-10.245 2.326,-6.964 -4.389,2.638 -6.728,20.358 -4.79,2.645 -8.515,-4.936 -14.536,12.107 -3.282,-3.295 1.468,-13.36 -3.212,1.052 -1.952,4.887 -12.363,2.299 -11.7959,-6.452 3.5165,10.197 -9.4282,-0.146 -0.6091,3.448 10.6742,4.61 -7.8222,4.735 -16.1151,2.533 -3.475,-4.299 -8.4868,2.617 -8.3344,-0.976 -5.3579,2.423 3.1843,2.824 -5.4825,6.466 -3.2673,-1.371 -12.4739,2.367 -3.9042,-2.056 -11.7125,9.768 -15.57519,7.116 -6.77001,-2.347 -10.3004,11.131 -4.3887,-3.364 -1.1353,5.233 -14.5645,6.687 -12.5016,0.962 -18.0811,10.218 -3.8487,5.607 -2.7136,-0.962 -1.9105,6.472 -21.3064,14.44 -1.786,7.081 9.8985,2.209 -5.9945,0.706 -13.54,7.282 -0.942,6.715 -9.234,-0.547 -7.67,4.534 -9.276,-1.052 5.912,5.697 -16.378,-4.645 11.629,9.4 -4.07,5.171 -10.176,-3.779 -6.645,-8.356 -8.127,-1.398 2.395,4.873 -9.968,-1.266 -7.559,2.325 3.447,0.797 -0.581,4.624 -10.922,3.913 v 0.108 l 17.899,5.137 0.457,7.94 -18.356,0.614 V 825.24 l 14.577,-5.14 1.176,-8.231 -6.645,-6.77 -8.39,-2.72 2.603,-1.454 -1.066,-3.489 5.344,-2.534 -7.337,-4.746 15.353,-1.899 9.511,-6.216 -0.817,-3.184 8.252,-6.978 9.816,1.163 17.942,-5.905 -1.994,-3.032 -14.01,5.074 -24.007,-1.412 1.703,4.112 -22.011,0.784 v -85.298 l 4.711,-0.584 3.382,-4.25 8.325,-4.394 15.229,0.284 5.995,-7.518 10.909,-4.485 0.166,-4.237 -8.14,-1.059 9.109,-3.227 8.337,-6.088 0.621,-4.1 10.641,-3.83 -0.715,-10.735 8.016,-1.592 9.027,-5.248 2.462,-14.106 17.8481,-11.99 -1.2598,-7.933 7.9052,-0.574 0.2354,-3.967 6.2301,-3.219 2.3397,-5.018 -13.097,-12.959 -12.6622,-4.312 -2.1858,-3.429 5.1707,-5.017 -1.4537,-8.182 -6.3967,3.655 -12.377,-11.221 -33.683,-14.661 -4.278,-19.722 8.306,-7.04 -1.163,-1.059 -7.13,3.703 -8.218,6.644 0.399,4.604 -6.891,10.009 -25.714,1.185 V 239.911 l 6.905,6.984 16.106,-0.044 6.259,-4.976 19.957,-8.958 9.556,-22.761 5.442,-3.772 13.459,-4.307 24.6861,6.18 15.8155,8.005 21.9871,-4.339 3.455,-7.626 -11.9034,-18.22 0.9494,-4.352 4.044,-2.224 22.9893,3.288 40.17632,17.336 22.02228,-2.145 12.3781,-7.024 17.3365,-0.73 12.3078,-7.49 7.1562,-18.638 13.5034,-9.305 6.5583,-3.011 9.2921,0.712 45.249,-12.695 6.752,-15.556 -1.108,-5.367 7.262,-24.4225 0.659,-9.3188 8.264,-10.8924 9.838,3.0725 35.639,25.3542 13.39,0.694 10.822,7.284 19.903,4.686 4.783,13.934 19.517,10.136 -8.176,14.787 11.358,9.047 -9.081,6.167 0.369,4.787 10.453,1.041 5.679,4.66 25.635,-18.005 7.148,-7.125 3.068,-8.783 12.668,-9.354 18.057,-2.083 2.348,2.65 -4.062,42.115 3.077,7.196 10.594,1.481 4.386,3.873 2.48,9.569 -5.548,10.704 9.952,0.971 14.339,12.58 1.582,15.012 18.163,14.976 -5.6,11.481 18.611,6.734 -0.211,10.941 5.89,11.073 12.378,-1.57 15.174,4.62 -10.866,16.365 -7.367,5.279 -2.145,5.776 -11.719,6.304 2.031,6.439 -2.98,15.214 7.13,13.362 -3.728,11.398 11.385,2.502 12.985,-2.427 2.452,15.679 16.924,30.115 12.132,11.789 2.725,9.389 16.264,8.414 3.411,16.558 -6.998,4.29 -5.706,18.748 -19.613,15.556 18.98,3.38 2.734,5.709 -10.083,8.269 6.435,7.095 -12.369,1.292 -6.497,-4.017 -4.299,10.03 -11.517,1.222 -4.387,7.719 -4.536,0.378 -1.9,3.144 -0.324,3.555 -20.405,-2.857 -6.33,5.706 -39.297,13.723 -1.67,4.439 4.422,8.027 -18.031,0.941 -6.769,-4.774 -16.106,15.235 -10.145,4.035 -4.888,10.216 -11.886,2.725 -12.202,7.121 -3.781,5.363 -30.399,20.859" id="path405" style="stroke-width:3.125;stroke-dasharray:none" />
      <path fill-rule="evenodd" vector-effect="none" d="" id="path406" style="stroke-width:3.125;stroke-dasharray:none" />
      <path fill-rule="evenodd" vector-effect="none" d="m -5.54289,790.472 -16.71041,0.713 -13.8031,-6.624 30.51351,5.911" id="path407" style="stroke-width:3.125;stroke-dasharray:none" />
      <path fill-rule="evenodd" vector-effect="none" d="m -67.3174,806.843 5.7039,-5.046 8.1268,-3.094 -2.3259,4.548 2.3259,4.755 -11.671,2.181 -2.1597,-3.344" id="path408" style="stroke-width:3.125;stroke-dasharray:none" />
      <path fill-rule="evenodd" vector-effect="none" d="m -13.7804,795.221 14.05223,-1.295 3.55807,3.344 -8.30677,4.922 1.16295,-4.756 -10.46648,-2.215" id="path409" style="stroke-width:3.125;stroke-dasharray:none" />
      <path fill-rule="evenodd" vector-effect="none" d="m 42.0825,747.388 0.623,-4.361 3.6965,-1.433 8.556,3.364 -1.7168,3.717 -8.5421,1.454 -2.6166,-2.741" id="path410" style="stroke-width:3.125;stroke-dasharray:none" />
      <path fill-rule="evenodd" vector-effect="none" d="m 78.8814,819.435 2.5336,6.784 -5.9394,3.883 -2.6304,-2.388 3.3227,-3.932 -3.5996,-2.464 6.3131,-1.883" id="path411" style="stroke-width:3.125;stroke-dasharray:none" />
      <path fill-rule="evenodd" vector-effect="none" d="m 281.206,648.233 30.399,-20.859 3.781,-5.363 12.202,-7.121 11.886,-2.725 4.888,-10.216 10.145,-4.035 16.106,-15.235 6.769,4.774 18.031,-0.941 -4.422,-8.027 1.67,-4.439 39.297,-13.723 6.33,-5.706 20.405,2.857 0.324,-3.555 21.514,13.371 8.387,0.58 3.622,9.662 -5.979,16.228 8.774,8.299 -1.881,6.418 6.734,5.152 25.495,13.284 15.209,-2.519 12.325,3.204 29.838,24.831 11.112,4.954 25.6,4.602 -3.411,8.339 5.082,8.712 -2.901,4.879 -15.895,6.106 -27.007,5.481 -14.506,-6.523 -11.551,12.071 -7.579,5.565 -6.945,1.433 -8.211,10.224 -8.017,4.378 -13.416,4.712 -7.947,-0.484 -13.433,6.62 -18.788,4.392 -1.163,-2.229 -27.038,10.751 -12.876,-8.826 2.534,-3.087 h -11.505 l 2.326,4.651 -9.234,-0.339 -3.309,-6.271 -8.473,-0.25 -15.215,-9.836 -3.475,2.755 -6.161,-2.762 -3.406,-7.165 -18.875,-6.404 -4.176,-6.997 1.873,16.168 -0.692,2.628 -3.954,1.219 2.399,3.562 -8.317,1.159 -7.818,4.325 -1.975,3.681 -4.534,-6.493 5.834,-6.944 0.321,-4.782 -3.946,0.685 -6.631,-5.109 0.734,-7.192 -4.68,-3.544 0.416,-4.693 -24.893,-1.745 -3.6,-6.978 -5.787,-1.052 -6.977,-6.964 8.237,-4.651 2.229,-10.661 3.863,-4.271 15.963,0.893 -15.202,-2.326 -6.853,-10.563" id="path412" style="stroke-width:3.125;stroke-dasharray:none" />
      <path fill-rule="evenodd" vector-effect="none" d="m 375.926,732.189 -2.903,1.911 4.072,7.317 -19.572,9.374 6.534,-5.521 -2.416,-1.791 6.414,-12.594 7.871,1.304" id="path413" style="stroke-width:3.125;stroke-dasharray:none" />
      <path fill-rule="evenodd" vector-effect="none" d="m 335.145,742.404 -15.243,0.028 5.69,-3.489 7.31,-0.942 4.126,1.315 -1.883,3.088" id="path414" style="stroke-width:3.125;stroke-dasharray:none" />
      <path fill-rule="evenodd" vector-effect="none" d="m 254.784,697.747 2.614,-2.37 1.975,3.287 -3.137,1.752 -1.452,-2.669" id="path415" style="stroke-width:3.125;stroke-dasharray:none" />
      <path fill-rule="evenodd" vector-effect="none" d="m 335.255,745.394 3.421,-0.55 -1.704,4.731 -2.997,-0.873 1.28,-3.308" id="path416" style="stroke-width:3.125;stroke-dasharray:none" />
      <path fill-rule="evenodd" vector-effect="none" d="m 319.666,761.883 -0.539,-2.817 3.35,-1.759 1.107,4.105 -3.918,0.471" id="path417" style="stroke-width:3.125;stroke-dasharray:none" />
      <path fill-rule="evenodd" vector-effect="none" d="M 2112,-108 V 67.2258 l -0.54,2.2065 -26.15,6.9777 -3.12,3.9457 -20.53,9.6358 -11.13,10.9645 -11.46,1.883 -19.69,12.793 -4.61,-0.99 -22.05,13.083 -14.04,6.182 -4.52,-0.99 -21.72,8.099 -14.49,14.308 -10.03,3.807 -20.89,15.409 -14.83,-2.533 -18.64,8.874 -2.16,4.901 -7.77,-6.161 h -13.32 l -3.59,4.528 h -8.14 l -17.73,9.324 -20.69,1.35 -10.41,3.322 -13.55,9.449 -22.68,-1.862 -4.77,-3.945 7.15,-3.475 6.51,0.83 0.37,-1.993 -15.16,-13.125 -15.18,1.938 -2.18,8.861 -3.86,2.616 -8.35,-1.412 -4.22,-10.902 -5.75,-2.029 1.04,-12.882 -4.03,0.166 -9.88,5.753 2.33,2.325 -13.01,0.083 -6.97,3.199 -11.47,-5.275 -1.33,-8.999 -16.72,-3.06 -1.74,3.489 -8.23,3.586 2.44,6.977 -8.27,2.423 -4.05,-7.656 2.93,-29.53 -2.35,-3.676 5.01,-1.454 -0.37,-4.465 3.61,-2.312 -1.79,-6.97 4.67,0.685 4.28,-3.447 -12.59,-7.989 6.48,-4.928 v -5.234 l -9.56,-2.492 -1.29,5.794 -4.76,2.042 -4.66,6.244 -22.23,8.307 -11.28,10.965 -16.96,7.988 -7.4,-2.734 5.82,-5.919 -10.47,5.919 -1.58,-2.527 10.53,-16.516 7.97,-5.504 6.51,-1.495 1.66,-3.675 6.52,-4.445 1.2,-4.818 -3.57,-1.7647 -6.63,8.8537 -4.03,0.429 1.66,-3.655 -3.62,-2.347 -10.47,-2.173 -8.38,2.257 -5.16,-5.3375 -8.75,7.6625 -2.34,11.298 -4.74,2.637 7.02,4.07 -5.64,1.994 -6.14,-4.797 -8.11,5.697 3.36,2.035 4.75,-3.08 -1.92,4.506 -20.48,18.746 0.33,7.15 -8.04,-2.222 -3.09,1.592 -0.58,9.816 -9.84,1.385 -7.55,-1.849 1.11,12.191 9.97,-1.883 2.16,1.903 -15.78,7.165 -4.58,9.662 -8.83,-3.224 -4.59,2.713 -6.24,12.025 4.4,4.346 -1.39,2.195 -5.09,1.294 -3.92,7.922 5.6,4.282 -3.63,0.836 1.15,4.972 -8.94,-3.558 2.33,-5.032 -9.15,-2.05 -1.11,-8.495 -2.5,-0.197 -3.17,4.759 -15.68,-0.054 -7.21,2.194 -3.63,3.552 -7.06,1.246 -12.62,-5.882 12.59,-0.756 7.26,3.447 2.99,-5.915 -27.69,-0.11 7.67,-3.452 -1.12,-4.298 -13.63,3.101 -4.18,-3.221 -10.91,6.116 0.71,3.554 12.27,4.702 -0.58,6.189 7.6,-3.005 16.79,11.768 -0.46,1.648 -4.62,-0.305 -0.74,8.065 -8.86,1.786 -7.39,18.402 -7.35,9.965 -6.33,-4.331 -2.88,-13.662 -9.94,-5.296 -9.63,-16.752 9.14,-6.537 -2.15,-9.002 -11.56,-9.525 -17.04,0.044 -4.1,-3.253 4.68,-6.585 30.5,-13.93 25.25,-1.23 5.89,-7.029 37.93,2.905 5.34,-8.088 8.53,-0.052 4.94,-2.356 -4.2,-20.651 17.97,-15.139 -2.53,-13.763 11.67,-10.91 1.74,-13.3316 5.61,-6.1275 -1.12,-12.0749 -3.65,-3.057 -15.68,-10.8201 5.33,-9.5034 -3.69,-32.7433 8,-21.6705349 -0.72,-16.7386651 8.74,-8.0529 L 1427.78,-108 H 2112" id="path418" style="stroke-width:3.125;stroke-dasharray:none" />
      <path fill-rule="evenodd" vector-effect="none" d="m 1565.65,151.268 -0.86,5.994 -5.4,4.001 -7.83,-0.062 -13.65,-4.922 5.81,-1.059 -3.71,-3.246 3.71,-0.346 -2.32,-4.631 13.92,1.253 -5.59,-4.749 4.85,0.651 11.07,7.116" id="path419" style="stroke-width:3.125;stroke-dasharray:none" />
      <path fill-rule="evenodd" vector-effect="none" d="m 1655.78,183.83 4.37,4.742 -12.59,-5.399 4.41,-10.875 3.81,11.532" id="path420" style="stroke-width:3.125;stroke-dasharray:none" />
      <path fill-rule="evenodd" vector-effect="none" d="m 1358.08,274.505 -17.42,5.5 -0.44,-6.019 -14.42,-6.399 -7.58,0.174 0.64,2.157 -4.99,2.203 -5.55,-2.629 -3.97,5.68 2.85,8.284 -5.6,-2.244 0.32,4.028 -5.92,3.064 -0.75,3.826 -4.02,1.422 1.47,-6.079 -3.65,-3.089 -11.09,9.287 -4.55,1.514 -1.79,-10.417 4.63,-7.944 9.27,-8.606 -1.98,-14.564 29.12,-5.958 3.26,-16.478 3.21,-3.436 -2.7,-2.619 4.94,-4.229 2.93,-0.132 5,13.662 9.63,16.752 9.94,5.296 2.88,13.662 6.33,4.331" id="path421" style="stroke-width:3.125;stroke-dasharray:none" />
      <path fill-rule="evenodd" vector-effect="none" d="m 1273.41,295.185 -0.5,12.291 -4.32,0.429 -2.47,4.414 -6.69,-2.934 -8,1.978 -6.67,14.11 -3.22,-3.213 -5.57,5.402 3.49,3.475 -4.74,3.502 -1.73,7.296 -11.56,-0.938 -2.07,13.627 -5.46,10.078 -6.66,-2.179 -6.56,3.116 -5.68,12.827 -8.6,5.835 -7.15,17.066 1.81,14.419 24.96,15.073 -8,14.149 -8.03,28.963 2.79,24.484 6.22,5.834 -6.75,16.433 -1.47,2.251 -3.1,-1.875 -21.53,1.002 -3.53,5.036 -5.6,2.492 -15.51,2.411 -12.8,6.116 -8.25,12.197 -5.63,-5.84 -6.23,0.385 -12.4,24.007 -14.84,-2.427 -1.89,-10.058 -12.59,-9.38 -3.17,-11.71 -7.68,-9.099 -0.78,-5.328 3.29,-4.791 -3.8,-8.352 6.58,-10.923 -5.49,-17.024 2.27,-4.58 -5.31,-14.045 5.65,-9.569 -14.86,-17.226 -3.89,-11.056 1.87,-5.52 12.81,-10.972 -0.19,-4.734 -6.82,-8.989 -15.79,-4 3.64,-7.631 -4.24,-9.381 1.02,-14.488 -8.42,-0.729 -4.89,-18.4 10.82,-0.335 6.36,-7.507 10.66,-5.934 2.48,-5.179 9.68,-0.844 4.05,-9.042 10.67,-2.272 6.28,-5.82 0.21,-3.007 9.37,0.748 15.54,-12.009 -5.17,-3.939 8.04,-9.292 -5.8,-3.49 7.2,-0.959 -0.03,-8.589 11.52,-2.589 3.86,-6.325 4.36,1.046 -2.04,-4.229 7.85,2.954 8.14,-2.211 17.19,12.172 3.24,-1.244 1.53,-4.633 4.17,-1.235 0.68,-6.224 18.99,0.949 4.34,-5.697 1.3,-18.593 4.52,-3.587 -3.65,-3.873 1.61,-2.369 4.36,-0.725 1.85,-5.047 -5.1,-4.558 0.63,-7.213 15.39,-36.721 9.41,-2.422 -4.65,-3.385 5.01,-2.11 14.72,7.917 21.4,-3.394 1.53,3.807 -5.4,6.457 23.86,3.279 2.97,6.013 -2.28,21.016 3.34,5.912 10.56,9.921 17.52,8.664 4.15,8.473 -3.26,16.478 -29.12,5.958 1.98,14.564 -9.27,8.606 -4.63,7.944 1.79,10.417" id="path422" style="stroke-width:3.125;stroke-dasharray:none" />
      <path fill-rule="evenodd" vector-effect="none" d="m 1096.2,568.904 -14.13,15.657 -17.31,2.149 -19.61,14.985 -18.46,6.253 -10.92,0.663 -3.09,3.475 -5.64,-0.416 -3.41,7.106 6.85,2.434 1.33,9.51 -6.07,3.568 -6.848,-1.09 -7.726,3.386 -2.64,3.971 -8.145,1.476 -7.631,5.231 -11.939,1.21 -6.297,11.683 -10.94,-8.317 -6.058,3.555 1.114,4.566 -13.484,2.222 -25.225,-4.908 -1.537,4.209 -5.801,2.776 -4.029,4.991 -5.677,-1.562 -5.454,15.503 -15.783,1.26 2.077,3.358 -16.721,2.971 -5.522,7.043 -6.727,-4.106 -17.506,14.284 -3.323,6.763 1.855,9.823 6.895,2.16 3.71,7.102 -9.206,14.388 7.24,28.364 -1.453,6.424 -5.552,-1.745 3.475,-9.4 -8.016,-10.536 -2.077,-0.609 -7.629,5.414 -50.925,-0.473 -4.976,4.175 -4.026,16.089 -9.214,3.824 1.319,8.044 -2.409,2.497 -16.299,-1.886 -3.499,-11.798 -9.934,2.505 -5.503,-7.178 -13.75,2.462 -4.8,-1.912 -1.407,-7.715 6.312,-18.721 -11.077,-11.028 6.875,-11.974 -1.547,-9.394 8.264,-7.973 -5.363,-5.983 10.374,-17.512 15.121,-4.396 h 10.936 l 12.414,6.734 4.589,-3.011 9.16,-1.103 3.798,-4.941 -9.002,-23.864 4.624,-2.65 -0.088,-5.17 13.099,-8.488 2.673,-5.525 -10.532,-6.677 -1.055,-15.574 -9.003,-7.138 -9.16,-2.699 -15.49,0.312 2.039,-11.35 10.409,-10.993 1.213,-13.935 16.721,-8.901 12.818,-2.272 9.266,-17.772 20.607,-7.745 5.257,-4.339 0.598,-5.732 -12.255,-8.162 -0.862,-5.89 4.115,-10.616 10.901,-11.275 0.791,-6.321 17.407,0.712 6.4,-13.336 4.466,-1.372 17.618,4.141 2.233,4.15 -3.376,16.316 -11.798,3.244 5.503,11.517 -17.072,13.868 8.035,5.271 9.67,18.123 7.684,5.077 4.906,13.117 12.94,2.751 -2.866,3.802 0.651,8.26 -6.136,8.29 3.147,9.996 13.978,-5.464 15.508,-9.442 9.917,-13.231 15.859,-3.758 13.82,6.756 4.87,-0.466 4.414,-3.398 19.323,-17.565 6.523,-16.009 5.134,-23.521 -4.255,-14.4 2.778,-2.462 22.576,-1.956 7.104,-9.055 11.922,-5.086 1.81,-12.057 20.92,0.871 28.94,13.424 5.49,17.024 -6.58,10.923 3.8,8.352 -3.29,4.791 0.78,5.328 7.68,9.099 3.17,11.71 12.59,9.38 1.89,10.058 14.84,2.427" id="path423" style="stroke-width:3.125;stroke-dasharray:none" />
      <path fill-rule="evenodd" vector-effect="none" d="m 1427.78,-108 26.34,83.2431 -8.74,8.0529 0.72,16.7386651 -8,21.6705349 3.69,32.7433 -5.33,9.5034 15.68,10.8201 -21.97,6.2044 -20.54,-12.9848 -16.21,10.6639 -9.82,1.3714 -8.87,-12.4485 -30.36,-17.7936 -37.25,-10.022 2.48,-11.9519 -7.04,-8.0308 -6.94,-23.03326 2.34,-15.43754 -3.03,-5.0638 -9.54,15.96503 -17.81,7.56491 -10.95,10.98476 -11.98,-1.73192 -5.63,-21.76728 -14.83,-6.4704 -18.27,8.888 -2.16,11.71004 -3.55,3.64843 -49.91,3.16485 -19.8,8.45718 -19.22,4.1847 -5.6,7.121 3.53,21.0025 -2.35,2.6022 -37.61,11.6924 -20.3,-3.2879 -20.14,-26.0135 -2.9,-15.842 -19.72,-18.712302 -18.594,-30.211298 -12.976,-10.9188 -1.222,-41.9961 -11.692,-16.545 -8.37,1.1514 -19.376,8.6418 -12.035,16.809 -15.315,-2.7604 1.776,35.4026 -2.857,6.2154 -32.361,9.7584 -12.061,-2.2594 -5.838,-2.7956 -5.758,-13.609 -17.134,-9.266 1.063,-9.7496 -20.967,-22.7123 4.149,-8.6507 -0.712,-9.6136 11.877,-3.42 -0.616,-0.877 h 600.609" id="path424" style="stroke-width:3.125;stroke-dasharray:none" />
      <path fill-rule="evenodd" vector-effect="none" d="m 1452.14,74.772 3.65,3.057 1.12,12.0749 -5.61,6.1275 -1.74,13.3316 -11.67,10.91 2.53,13.763 -17.97,15.139 4.2,20.651 -4.94,2.356 -8.53,0.052 -5.34,8.088 -37.93,-2.905 -5.89,7.029 -25.25,1.23 -30.5,13.93 -4.68,6.585 4.1,3.253 17.04,-0.044 11.56,9.525 2.15,9.002 -9.14,6.537 -5,-13.662 -2.93,0.132 -4.94,4.229 2.7,2.619 -3.21,3.436 -4.15,-8.473 -17.52,-8.664 -10.56,-9.921 -3.34,-5.912 2.28,-21.016 -2.97,-6.013 -23.86,-3.279 5.4,-6.457 -1.53,-3.807 -21.4,3.394 -14.72,-7.917 -5.01,2.11 4.65,3.385 -9.41,2.422 -15.39,36.721 -0.63,7.213 5.1,4.558 -1.85,5.047 -4.36,0.725 -1.61,2.369 3.65,3.873 -4.52,3.587 -1.3,18.593 -4.34,5.697 -18.99,-0.949 -0.68,6.224 -4.17,1.235 -1.53,4.633 -3.24,1.244 -17.19,-12.172 -8.14,2.211 -7.85,-2.954 2.04,4.229 -4.36,-1.046 -3.86,6.325 -11.52,2.589 0.03,8.589 -7.2,0.959 5.8,3.49 -8.04,9.292 5.17,3.939 -15.54,12.009 -9.37,-0.748 -0.21,3.007 -6.28,5.82 -10.67,2.272 -4.05,9.042 -9.68,0.844 -27.59,-2.923 -1.99,2.963 h -17.25 l -7.4,4.998 -10.55,0.8 -40.897,-6.255 -38.682,6.655 -2.409,4.879 4.66,17.196 7.349,3.784 11.587,22.102 15.613,8.795 8.862,13.051 -19.956,30.444 -6.734,4.783 -7.174,-0.475 2.426,-2.435 -2.426,-1.046 -6.769,1.899 -2.304,-5.495 -6.031,1.266 -2.338,-9.793 -4.624,3.49 -5.108,-3.49 -10.673,1.696 -5.547,5.029 -31.675,-2.664 -4.141,2.91 -13.53,-4.826 -2.707,-5.627 -11.702,-1.274 -7.956,2.672 -8.228,-2.672 -12.563,0.703 -6.137,-1.75 3.526,-2.312 -1.416,-2.127 -12.65,-2.532 -4.66,4.932 -4.044,-2.312 -3.622,1.45 -5.099,-2.62 5.416,-5.415 7.349,-2.708 -20.536,-9.89 -1.706,-5.859 4.704,-0.519 -5.776,-8.822 -7.323,-3.297 -9.099,-2.409 -2.778,-5.929 -7.262,2.742 -3.798,6.405 -9.512,2.967 -3.446,5.771 -10.436,-6.975 -8.132,0.158 8.247,5.908 -9.978,5.806 -8.748,0.202 -8.651,8.809 1.741,8.906 -12.923,21.679 3.543,14.022 -5.864,1.284 2.321,-3.692 -4.897,-0.071 -5.38,3.086 -22.348,23.912 -5.916,9.398 -25.688,13.108 2.452,3.156 -6.268,5.934 0.466,2.198 -4.835,2.057 -5.125,8.915 -9.099,2.778 -1.952,2.505 5.011,-0.044 -0.369,2.48 -12.194,3.727 -8.668,-3.42 -10.761,4.721 -10.382,-2.708 -2.558,2.981 -7.113,1.524 -2.734,-5.709 -18.98,-3.38 19.613,-15.556 5.706,-18.748 6.998,-4.29 -3.411,-16.558 -16.264,-8.414 -2.725,-9.389 -12.132,-11.789 -16.924,-30.115 -2.452,-15.679 -12.985,2.427 -11.385,-2.502 3.728,-11.398 -7.13,-13.362 2.98,-15.214 -2.031,-6.439 11.719,-6.304 2.145,-5.776 7.367,-5.279 10.866,-16.365 -15.174,-4.62 -12.378,1.57 -5.89,-11.073 0.211,-10.941 -18.611,-6.734 5.6,-11.481 -18.163,-14.976 -1.582,-15.012 -14.339,-12.58 -9.952,-0.971 5.548,-10.704 -2.48,-9.569 -4.386,-3.873 -10.594,-1.481 -3.077,-7.196 4.062,-42.115 -2.348,-2.65 -18.057,2.083 -12.668,9.354 -3.068,8.783 -7.148,7.125 -25.635,18.005 -5.679,-4.66 -10.453,-1.041 -0.369,-4.787 9.081,-6.167 -11.358,-9.047 8.176,-14.787 -19.517,-10.136 -4.783,-13.934 -19.903,-4.686 -10.822,-7.284 -13.39,-0.694 -35.639,-25.3542 -9.838,-3.0725 -8.264,10.8924 -0.659,9.3188 -15.367,-1.9693 -6.014,-5.222 -12.017,-1.811 -25.416,-12.4046 0.818,-9.2924 10.98,-6.6286 -0.211,-7.7188 12.853,4.9012 3.833,-3.8375 1.661,-12.6155 -34.743,-60.5106 0.818,-4.1143 5.784,-5.2572 -0.342,-9.2529 -18.0051,-9.622 -13.3012,-25.7498 -9.1606,-6.277 0.4396,-16.7123 -4.2462,-6.3119 -9.2397,3.103 -15.1738,11.2969 -22.8134,8.9759 -16.14967,9.5079 -15.03313,2.4088 -7.332,5.5956 -46.3302,13.7057 -7.5781,-1.3978 -4.0616,-4.6155 4.7297,-31.086 L -93.8391,-108 H 827.171 l 0.616,0.877 -11.877,3.42 0.712,9.6136 -4.149,8.6507 20.967,22.7123 -1.063,9.7496 17.134,9.266 5.758,13.609 5.838,2.7956 12.061,2.2594 32.361,-9.7584 2.857,-6.2154 -1.776,-35.4026 15.315,2.7604 12.035,-16.809 19.376,-8.6418 8.37,-1.1514 11.692,16.545 1.222,41.9961 12.976,10.9188 18.594,30.211298 19.72,18.712302 2.9,15.842 20.14,26.0135 20.3,3.2879 37.61,-11.6924 2.35,-2.6022 -3.53,-21.0025 5.6,-7.121 19.22,-4.1847 19.8,-8.45718 49.91,-3.16485 3.55,-3.64843 2.16,-11.71004 18.27,-8.888 14.83,6.4704 5.63,21.76728 11.98,1.73192 10.95,-10.98476 17.81,-7.56491 9.54,-15.96503 3.03,5.0638 -2.34,15.43754 6.94,23.03326 7.04,8.0308 -2.48,11.9519 37.25,10.022 30.36,17.7936 8.87,12.4485 9.82,-1.3714 16.21,-10.6639 20.54,12.9848 21.97,-6.2044" id="path425" style="stroke-width:3.125;stroke-dasharray:none" />
      <path fill-rule="evenodd" vector-effect="none" d="m 728.569,366.896 7.323,3.297 5.776,8.822 -4.704,0.519 1.706,5.859 20.536,9.89 -7.349,2.708 -5.416,5.415 5.099,2.62 3.622,-1.45 4.044,2.312 4.66,-4.932 12.65,2.532 1.416,2.127 -3.526,2.312 6.137,1.75 12.563,-0.703 8.228,2.672 7.956,-2.672 11.702,1.274 2.707,5.627 13.53,4.826 4.141,-2.91 31.675,2.664 5.547,-5.029 10.673,-1.696 5.108,3.49 4.624,-3.49 2.338,9.793 6.031,-1.266 2.304,5.495 6.769,-1.899 2.426,1.046 -2.426,2.435 7.174,0.475 6.734,-4.783 19.956,-30.444 -8.862,-13.051 -15.613,-8.795 -11.587,-22.102 -7.349,-3.784 -4.66,-17.196 2.409,-4.879 38.682,-6.655 40.897,6.255 10.55,-0.8 7.4,-4.998 h 17.25 l 1.99,-2.963 27.59,2.923 -2.48,5.179 -10.66,5.934 -6.36,7.507 -10.82,0.335 4.89,18.4 8.42,0.729 -1.02,14.488 4.24,9.381 -3.64,7.631 15.79,4 6.82,8.989 0.19,4.734 -12.81,10.972 -1.87,5.52 3.89,11.056 14.86,17.226 -5.65,9.569 5.31,14.045 -2.27,4.58 -28.94,-13.424 -20.92,-0.871 -1.81,12.057 -11.922,5.086 -7.104,9.055 -22.576,1.956 -2.778,2.462 4.255,14.4 -5.134,23.521 -6.523,16.009 -19.323,17.565 -4.414,3.398 -4.87,0.466 -13.82,-6.756 -15.859,3.758 -9.917,13.231 -15.508,9.442 -13.978,5.464 -3.147,-9.996 6.136,-8.29 -0.651,-8.26 2.866,-3.802 -12.94,-2.751 -4.906,-13.117 -7.684,-5.077 -9.67,-18.123 -8.035,-5.271 17.072,-13.868 -5.503,-11.517 11.798,-3.244 3.376,-16.316 -2.233,-4.15 -17.618,-4.141 -4.466,1.372 -6.4,13.336 -17.407,-0.712 -0.967,-12.545 -5.187,-5.204 -9.846,1.331 -13.503,10.981 -16.352,-2.185 -9.811,-4.923 -10.814,-15.895 -0.176,-6.501 -7.507,-6.879 -6.805,-16.501 2.268,-5.71 -14.136,1.995 -4.308,-3.762 0.879,-9.288 10.145,-0.405 4.414,-5.67 8.193,-4.106 0.545,-20.668 6.26,-9.873" id="path426" style="stroke-width:3.125;stroke-dasharray:none" />
      <path fill-rule="evenodd" vector-effect="none" d="m 508.17,518.787 7.113,-1.524 2.558,-2.981 10.382,2.708 10.761,-4.721 8.668,3.42 12.194,-3.727 0.369,-2.48 -5.011,0.044 1.952,-2.505 9.099,-2.778 5.125,-8.915 4.835,-2.057 -0.466,-2.198 6.268,-5.934 -2.452,-3.156 25.688,-13.108 5.916,-9.398 22.348,-23.912 5.38,-3.086 4.897,0.071 -2.321,3.692 5.864,-1.284 -3.543,-14.022 12.923,-21.679 -1.741,-8.906 8.651,-8.809 8.748,-0.202 9.978,-5.806 -8.247,-5.908 8.132,-0.158 10.436,6.975 3.446,-5.771 9.512,-2.967 3.798,-6.405 7.262,-2.742 2.778,5.929 9.099,2.409 -6.26,9.873 -0.545,20.668 -8.193,4.106 -4.414,5.67 -10.145,0.405 -0.879,9.288 4.308,3.762 14.136,-1.995 -2.268,5.71 6.805,16.501 7.507,6.879 0.176,6.501 10.814,15.895 9.811,4.923 16.352,2.185 13.503,-10.981 9.846,-1.331 5.187,5.204 0.967,12.545 -0.791,6.321 -10.901,11.275 -4.115,10.616 0.862,5.89 12.255,8.162 -0.598,5.732 -5.257,4.339 -20.607,7.745 -9.266,17.772 -12.818,2.272 -16.721,8.901 -1.213,13.935 -10.409,10.993 -2.039,11.35 -4.203,6.782 -11.077,8.814 -3.692,7.222 -9.372,2.189 -7.49,6.022 -18.954,8.272 -7.42,11.561 -8.281,1.42 -12.202,6.176 -11.201,-4.48 -25.6,-4.602 -11.112,-4.954 -29.838,-24.831 -12.325,-3.204 -15.209,2.519 -25.495,-13.284 -6.734,-5.152 1.881,-6.418 -8.774,-8.299 5.979,-16.228 -3.622,-9.662 -8.387,-0.58 -21.514,-13.371 1.9,-3.144 4.536,-0.378 4.387,-7.719 11.517,-1.222 4.299,-10.03 6.497,4.017 12.369,-1.292 -6.435,-7.095 10.083,-8.269" id="path427" style="stroke-width:3.125;stroke-dasharray:none" />
    </g>
    <g stroke-linejoin="bevel" fill="none" font-family="'.AppleSystemUIFont'" font-style="normal" font-weight="400" stroke="#000000" font-size="54.1667px" stroke-linecap="square" stroke-opacity="1" stroke-width="1" id="g428" style="stroke-width:3.125;stroke-dasharray:none" />
    <g stroke-linejoin="bevel" fill="none" font-family="'.AppleSystemUIFont'" font-style="normal" font-weight="400" stroke="#000000" transform="scale(11.811)" font-size="54.1667px" stroke-linecap="square" stroke-opacity="1" stroke-width="1" id="g429" style="stroke-width:0.264584;stroke-dasharray:none" />
    <g stroke-linejoin="bevel" fill="none" font-family="'.AppleSystemUIFont'" font-style="normal" font-weight="400" stroke="#000000" transform="scale(11.811)" font-size="54.1667px" stroke-linecap="square" stroke-opacity="1" stroke-width="1" id="g430" style="stroke-width:0.264584;stroke-dasharray:none" />
    <g stroke-linejoin="bevel" fill="none" font-family="'.AppleSystemUIFont'" font-style="normal" font-weight="400" stroke="#000000" transform="scale(11.811)" font-size="54.1667px" stroke-linecap="square" stroke-opacity="1" stroke-width="1" id="g431" style="stroke-width:0.264584;stroke-dasharray:none" />
    <g stroke-linejoin="bevel" fill="none" font-family="'.AppleSystemUIFont'" font-style="normal" font-weight="400" stroke="#000000" font-size="54.1667px" stroke-linecap="square" stroke-opacity="1" stroke-width="1" id="g432" style="stroke-width:3.125;stroke-dasharray:none" />
    <g stroke-linejoin="bevel" fill="none" font-family="'.AppleSystemUIFont'" font-style="normal" font-weight="400" stroke="#000000" transform="scale(11.811)" font-size="54.1667px" stroke-linecap="square" stroke-opacity="1" stroke-width="1" id="g433" style="stroke-width:0.264584;stroke-dasharray:none" />
    <g stroke-linejoin="bevel" fill="none" font-family="'.AppleSystemUIFont'" font-style="normal" font-weight="400" stroke="#000000" transform="scale(11.811)" font-size="54.1667px" stroke-linecap="square" stroke-opacity="1" stroke-width="1" id="g434" style="stroke-width:0.264584;stroke-dasharray:none" />
    <g stroke-linejoin="bevel" fill="none" font-family="'.AppleSystemUIFont'" font-style="normal" font-weight="400" stroke="#000000" font-size="54.1667px" stroke-linecap="square" stroke-opacity="1" stroke-width="1" id="g435" style="stroke-width:3.125;stroke-dasharray:none" />
  </g>
  <defs id="defs435" />
  <g stroke-linejoin="bevel" fill="none" inkscape:label="Map 1: world_map — disputed_borders" fill-rule="evenodd" id="Map 1: world_map — disputed_borders" stroke="#000000" stroke-linecap="square" stroke-width="1" inkscape:groupmode="layer" style="display:inline">
    <g stroke-linejoin="bevel" fill="none" font-family="'.AppleSystemUIFont'" font-style="normal" font-weight="400" stroke="#000000" font-size="54.1667px" stroke-linecap="square" stroke-opacity="1" stroke-width="1" id="g436" />
    <g stroke-linejoin="bevel" fill="none" font-family="'.AppleSystemUIFont'" font-style="normal" font-weight="400" stroke="#000000" font-size="54.1667px" stroke-linecap="square" stroke-opacity="1" stroke-width="1" id="g437" />
    <g stroke-linejoin="bevel" fill="none" font-family="'.AppleSystemUIFont'" font-style="normal" font-weight="400" stroke="#000000" transform="scale(11.811)" font-size="54.1667px" stroke-linecap="square" stroke-opacity="1" stroke-width="1" id="g438" />
    <g stroke-linejoin="bevel" fill="none" font-family="'.AppleSystemUIFont'" font-style="normal" font-weight="400" stroke="#000000" transform="scale(11.811)" font-size="54.1667px" stroke-linecap="square" stroke-opacity="1" stroke-width="1" id="g439" />
    <g fill="#000000" font-family="'.AppleSystemUIFont'" font-style="normal" fill-opacity="0" font-weight="400" stroke="none" font-size="54.1667px" id="g440">
      <rect x="0" width="1920" height="1080" y="0" id="rect439" />
    </g>
    <g stroke-linejoin="bevel" fill="none" font-family="'.AppleSystemUIFont'" font-style="normal" font-weight="400" stroke="#000000" font-size="54.1667px" stroke-linecap="square" stroke-opacity="1" stroke-width="1" id="g441" />
    <g stroke-linejoin="bevel" fill="none" font-family="'.AppleSystemUIFont'" font-style="normal" font-weight="400" stroke="#000000" font-size="54.1667px" stroke-linecap="square" stroke-opacity="1" stroke-width="1" id="g442" />
    <g stroke-linejoin="bevel" fill="none" font-family="'.AppleSystemUIFont'" font-style="normal" font-weight="400" stroke="#000000" transform="scale(11.811)" font-size="54.1667px" stroke-linecap="square" stroke-opacity="1" stroke-width="1" id="g443" />
    <g stroke-linejoin="bevel" fill="none" font-family="'.AppleSystemUIFont'" font-style="normal" font-weight="400" stroke="#000000" transform="scale(11.811)" font-size="54.1667px" stroke-linecap="square" stroke-opacity="1" stroke-width="1" id="g444" />
    <g stroke-linejoin="bevel" fill="none" font-family="'.AppleSystemUIFont'" font-style="normal" font-weight="400" stroke="#000000" transform="scale(11.811)" font-size="54.1667px" stroke-linecap="square" stroke-opacity="1" stroke-width="1" id="g445" />
    <g stroke-linejoin="bevel" fill="none" font-family="'.AppleSystemUIFont'" font-style="normal" font-weight="400" stroke="#000000" font-size="54.1667px" stroke-linecap="square" stroke-opacity="1" stroke-width="1" id="g446" />
    <g stroke-linejoin="bevel" fill="none" font-family="'.AppleSystemUIFont'" font-style="normal" font-weight="400" stroke="#000000" transform="scale(11.811)" font-size="54.1667px" stroke-linecap="square" stroke-opacity="1" stroke-width="1" id="g447" />
    <g stroke-linejoin="bevel" fill="none" font-family="'.AppleSystemUIFont'" font-style="normal" font-weight="400" stroke="#000000" transform="scale(11.811)" font-size="54.1667px" stroke-linecap="square" stroke-opacity="1" stroke-width="1" id="g448" />
    <g stroke-linejoin="bevel" fill="none" font-family="'.AppleSystemUIFont'" font-style="normal" font-weight="400" stroke="#000000" font-size="54.1667px" stroke-linecap="square" stroke-opacity="1" stroke-width="1" id="g449" />
  </g>
  <g id="points" style="display:none" transform="translate(1,1)">
    <circle cx="814.47742" cy="309.8132" r="4" fill="#2e3440c9" id="白山市" />
    <circle cx="918.10229" cy="249.78296" r="4" fill="#2e3440c9" id="二道白河镇" />
    <circle cx="1012.7362" cy="243.0876" r="4" fill="#2e3440c9" id="老里克湖" />
    <circle cx="1140.2786" cy="193.7502" r="4" fill="#2e3440c9" id="延吉市" />
    <circle cx="900.66962" cy="329.73444" r="4" fill="#2e3440c9" id="长白山天池西坡" style="display:inline;stroke-width:3.125;stroke-dasharray:none" transform="translate(-1,-1)" />
    <circle cx="821.91272" cy="298.97006" r="4" fill="#2e3440c9" id="滑雪场" />
  </g>
  <g id="trail-path" style="display:none" transform="translate(1,1)">
    <path d="m 813.80997,309.63055 c 8.12105,1.97957 6.75801,0.94003 15.41794,5.18961 8.63034,7.02642 14.42401,12.54738 26.20469,9.54156 8.80585,0.48301 15.17796,5.38601 19.29747,10.26271 0.26287,6.19105 9.40254,-2.55457 12.84255,3.00491 5.30515,3.14513 12.67981,1.9025 13.99114,-9.34039 1.11899,-9.59389 -14.15811,-0.0404 -20.82081,-2.96575 -2.26928,-2.26104 -4.49013,-4.38789 -9.28332,-5.92457 -8.74332,-5.12977 -20.37508,-2.85898 -29.66064,-4.28615 -5.6111,-4.10799 -9.46252,-12.57114 -15.72212,-11.66777 2.57356,5.96218 -5.4247,-1.46043 -4.23774,-4.98147 -14.41306,-2.10206 -1.71751,-9.69075 -2.35452,-18.87782 -3.62228,-7.20255 2.57149,-14.63615 -2.19189,-21.0672 -5.22298,-11.68688 12.8849,-5.47249 18.55387,-12.32536 7.09464,-7.80404 14.92248,-12.87084 26.36887,-9.65402 9.19597,-1.64859 13.93466,6.76122 19.90368,11.61798 9.99236,1.17682 20.79803,14.595 27.61846,3.46179 10.62235,-2.52625 21.24729,-5.62913 30.09952,-10.47193 6.5347,-2.6107 5.86357,-9.11606 11.75992,-12.93133 6.59011,-3.42508 15.04093,2.17875 21.80983,4.0217 6.22344,5.4611 18.51718,5.85197 26.18057,6.84071 6.09076,-4.54324 9.23996,0.91056 14.13076,3.21233 4.25,-3.98568 5.5078,-2.7583 11.792,-4.01973 -2.3227,4.26661 7.3715,-3.37544 2.8159,-6.58295 5.4996,-5.97736 16.9773,-11.05666 24.6041,-11.09248 -2.19,8.11893 3.9046,7.53535 9.6391,8.5728 11.2623,-0.32219 10.5713,-12.15217 20.2561,-16.91746 -0.4736,-11.1687 20.3034,-7.87208 25.6814,-17.85917 10.3113,-4.94836 22.018,2.48183 31.8034,-0.63991" fill="none" stroke="#4c566a" stroke-width="2" opacity="0.6" id="path1" sodipodi:nodetypes="czzzzsccccccccccccccccccccccc" style="display:inline" />
  </g>
  <g id="camera-path" transform="translate(1,1)" style="display:none">
    <path d="m 813.8,309.6 c 15.96575,1.93327 27.80799,19.31989 44.9,14.9 9.75012,5.69312 25.67588,18.53973 35.38542,7.88833 -8.7355,-5.27136 -19.28877,-9.31998 -28.42939,-14.94926 C 854.1281,313.80715 840.16341,316.0243 830.8,307 814.36256,300.73522 818.26714,280.50314 818.02109,266.7218 817.36696,251.0414 834.07932,244.5511 845.9,239 c 11.97132,-8.43864 26.45499,-0.28285 36.30292,7.61896 10.22495,10.28597 25.84706,8.27463 38.16134,3.35409 12.81334,-2.93773 22.10226,-12.86875 32.11948,-20.31545 15.59069,-4.80614 28.25824,10.73 43.71626,8.8424 14.5961,5.23864 33.1329,0.0673 41,-13.8 12.0631,-5.93586 27.5871,8.74764 37.6281,-2.96328 10.6526,-20.10633 35.2345,-31.20208 57.5813,-28.14766 2.5959,0.0986 5.1922,0.21146 7.7906,0.21094" fill="none" stroke="#4c566a" stroke-width="2" opacity="0.6" id="path2" style="stroke:#bf616a" />
  </g>
</svg>
