<?xml version="1.0" encoding="UTF-8" standalone="no"?>
<svg
   width="64"
   height="64"
   viewBox="0 0 32 32"
   version="1.1"
   id="svg1"
   sodipodi:docname="car.svg"
   inkscape:version="1.4 (e7c3feb1, 2024-10-09)"
   xmlns:inkscape="http://www.inkscape.org/namespaces/inkscape"
   xmlns:sodipodi="http://sodipodi.sourceforge.net/DTD/sodipodi-0.dtd"
   xmlns="http://www.w3.org/2000/svg"
   xmlns:svg="http://www.w3.org/2000/svg">
  <defs
     id="defs1">
    <inkscape:path-effect
       effect="fill_between_many"
       method="originald"
       linkedpaths="#path1,0,1|"
       id="path-effect1" />
  </defs>
  <sodipodi:namedview
     id="namedview1"
     pagecolor="#ffffff"
     bordercolor="#000000"
     borderopacity="0.25"
     inkscape:showpageshadow="2"
     inkscape:pageopacity="0.0"
     inkscape:pagecheckerboard="0"
     inkscape:deskcolor="#d1d1d1"
     inkscape:zoom="15.584006"
     inkscape:cx="31.314156"
     inkscape:cy="35.292594"
     inkscape:window-width="2032"
     inkscape:window-height="1061"
     inkscape:window-x="0"
     inkscape:window-y="25"
     inkscape:window-maximized="0"
     inkscape:current-layer="svg1" />
  <path
     id="path3"
     style="fill:#567770;fill-opacity:0.99774265;stroke:none;stroke-width:0.5"
     d="M 8.0576172 10 A 1 1 0 0 0 7.2314453 10.438477 L 4.5195312 14.418945 A 3 3 0 0 0 4 16.107422 L 4 23 L 5.1416016 23 A 3.98 3.98 0 0 1 12.858398 23 L 19.141602 23 A 3.98 3.98 0 0 1 26.858398 23 L 28 23 L 28 17.578125 L 20.662109 14.941406 A 1 1 0 0 1 20.217773 14.623047 L 16.818359 10.355469 A 1 1 0 0 0 16.053711 10 L 8.0576172 10 z " />
  <path
     fill="currentColor"
     d="M 29.338,15.934 21.606,13.155 18.374,9.097 A 2.99,2.99 0 0 0 16.054,8 H 8.058 A 3,3 0 0 0 5.578,9.312 L 2.866,13.295 A 5,5 0 0 0 2,16.107 V 24 a 1,1 0 0 0 1,1 h 2.142 a 3.98,3.98 0 0 0 7.716,0 h 6.284 a 3.98,3.98 0 0 0 7.716,0 H 29 a 1,1 0 0 0 1,-1 V 16.875 A 1,1 0 0 0 29.338,15.934 M 9,26 a 2,2 0 1 1 2,-2 2.003,2.003 0 0 1 -2,2 m 14,0 a 2,2 0 1 1 2,-2 2.003,2.003 0 0 1 -2,2 m 5,-3 h -1.142 a 3.98,3.98 0 0 0 -7.716,0 H 12.858 A 3.98,3.98 0 0 0 5.142,23 H 4 V 16.107 A 3,3 0 0 1 4.52,14.419 L 7.231,10.438 A 1,1 0 0 1 8.058,10 h 7.996 a 1,1 0 0 1 0.764,0.355 l 3.4,4.268 a 1,1 0 0 0 0.444,0.318 L 28,17.578 Z"
     id="path1"
     style="display:inline;fill:#405b54;fill-opacity:1;stroke-width:0.75;stroke-dasharray:none" />
</svg>
